<svg height="512pt" viewBox="0 0 512 512.16257" width="512pt" xmlns="http://www.w3.org/2000/svg"><path d="m469.414062 158.058594v319.96875h-426.667968v-319.96875c1.683594.601562 3.429687 1.003906 5.207031 1.195312 20.308594 2.289063 37.460937-16.328125 37.460937-39.625 0 22 15.273438 39.824219 34.132813 39.824219s34.132813-17.824219 34.132813-39.824219c0 22 15.277343 39.824219 34.136718 39.824219 18.855469 0 34.132813-17.824219 34.132813-39.824219 0 22 15.273437 39.824219 34.132812 39.824219s34.132813-17.824219 34.132813-39.824219c0 22 15.273437 39.824219 34.132812 39.824219s34.132813-17.824219 34.132813-39.824219c0 22 15.277343 39.824219 34.132812 39.824219 18.859375 0 34.132813-17.824219 34.132813-39.824219 0 23.296875 17.152344 41.914063 37.464844 39.625 1.773437-.191406 3.523437-.59375 5.203124-1.195312zm0 0" fill="#dfc49c"/><path d="m443.816406 158.058594v319.96875h-401.070312v-319.96875c1.574218.601562 3.21875 1.003906 4.894531 1.195312 19.089844 2.289063 35.214844-16.328125 35.214844-39.625 0 22 14.355469 39.824219 32.085937 39.824219 17.726563 0 32.082032-17.824219 32.082032-39.824219 0 22 14.359374 39.824219 32.085937 39.824219s32.085937-17.824219 32.085937-39.824219c0 22 14.359376 39.824219 32.085938 39.824219s32.085938-17.824219 32.085938-39.824219c0 22 14.359374 39.824219 32.085937 39.824219s32.085937-17.824219 32.085937-39.824219c0 22 14.355469 39.824219 32.082032 39.824219 17.730468 0 32.085937-17.824219 32.085937-39.824219 0 23.296875 16.125 41.914063 35.214844 39.625 1.675781-.191406 3.320313-.59375 4.894531-1.195312zm0 0" fill="#ffe0b2"/><path d="m503.546875 469.496094v25.601562c-.011719 4.707032-3.824219 8.519532-8.53125 8.53125h-477.867187c-4.707032-.011718-8.519532-3.824218-8.535157-8.53125v-25.601562c.027344-9.414063 7.652344-17.039063 17.066407-17.066406h460.800781c9.414062.027343 17.039062 7.652343 17.066406 17.066406zm0 0" fill="#549414"/><path d="m477.949219 469.496094v25.601562c.105469 4.582032-3.507813 8.394532-8.09375 8.53125h-453.148438c-4.585937-.136718-8.199219-3.949218-8.09375-8.53125v-25.601562c-.207031-9.167969 7.019531-16.789063 16.1875-17.066406h436.960938c9.167969.277343 16.394531 7.898437 16.1875 17.066406zm0 0" fill="#60a917"/><path d="m495.015625 117.238281v26.539063c.171875 15.917968-10.304687 29.992187-25.601563 34.390625-1.695312.519531-3.4375.863281-5.203124 1.023437-9.585938.945313-19.125-2.207031-26.261719-8.675781-7.132813-6.46875-11.203125-15.65625-11.203125-25.285156 0 18.851562-15.28125 34.132812-34.132813 34.132812-18.851562 0-34.132812-15.28125-34.132812-34.132812 0 18.851562-15.28125 34.132812-34.132813 34.132812-18.851562 0-34.132812-15.28125-34.132812-34.132812 0 18.851562-15.28125 34.132812-34.132813 34.132812-18.851562 0-34.132812-15.28125-34.132812-34.132812 0 18.851562-15.285157 34.132812-34.132813 34.132812-18.851562 0-34.136718-15.28125-34.136718-34.132812 0 18.851562-15.28125 34.132812-34.132813 34.132812s-34.132813-15.28125-34.132813-34.132812c.003907 9.628906-4.066406 18.816406-11.203124 25.285156-7.132813 6.46875-16.671876 9.621094-26.257813 8.675781-1.765625-.160156-3.511719-.503906-5.207031-1.023437-15.296875-4.398438-25.769532-18.472657-25.597656-34.390625v-26.539063c.015624-2.101562.421874-4.183593 1.195312-6.140625h475.476562c.773438 1.957032 1.175782 4.039063 1.195313 6.140625zm0 0" fill="#db4e6c"/><path d="m132.859375 8.695312h-14.421875c-10.117188.023438-19.707031 4.523438-26.195312 12.289063l-71.167969 85.332031c-1.183594 1.421875-2.109375 3.039063-2.730469 4.78125-.773438 1.957032-1.179688 4.039063-1.195312 6.140625v26.539063c-.171876 15.917968 10.300781 29.992187 25.597656 34.390625 1.695312.519531 3.441406.863281 5.207031 1.023437 9.585937.945313 19.125-2.207031 26.257813-8.675781 7.136718-6.46875 11.207031-15.65625 11.203124-25.285156 0 18.851562 15.28125 34.132812 34.132813 34.132812s34.132813-15.28125 34.132813-34.132812c0 18.851562 15.285156 34.132812 34.136718 34.132812 18.847656 0 34.132813-15.28125 34.132813-34.132812 0 18.851562 15.28125 34.132812 34.132812 34.132812 18.851563 0 34.132813-15.28125 34.132813-34.132812 0 18.851562 15.28125 34.132812 34.132812 34.132812 18.851563 0 34.132813-15.28125 34.132813-34.132812 0 18.851562 15.28125 34.132812 34.132812 34.132812 18.851563 0 34.132813-15.28125 34.132813-34.132812 0 9.628906 4.070312 18.816406 11.203125 25.285156 7.136719 6.46875 16.675781 9.621094 26.261719 8.675781 1.765624-.160156 3.507812-.503906 5.203124-1.023437 15.296876-4.398438 25.773438-18.472657 25.601563-34.390625v-26.539063c-.019531-2.101562-.421875-4.183593-1.195313-6.140625-.625-1.742187-1.546874-3.359375-2.730468-4.78125l-71.167969-85.332031c-6.488281-7.765625-16.078125-12.265625-26.199219-12.289063zm0 0" fill="#c81e1e"/><path d="m493.820312 111.097656h-67.074218l-47.445313-102.402344h14.421875c10.121094.023438 19.710938 4.523438 26.199219 12.289063l71.167969 85.332031c1.183594 1.421875 2.105468 3.039063 2.730468 4.78125zm0 0" fill="#ecf0f1"/><path d="m379.300781 8.695312 47.445313 102.402344h-66.386719l-28.417969-102.402344zm0 0" fill="#f44335"/><path d="m331.941406 8.695312 28.417969 102.402344h-66.390625l-9.472656-102.402344zm0 0" fill="#ecf0f1"/><path d="m284.496094 8.695312 9.472656 102.402344h-75.777344l9.472656-102.402344zm0 0" fill="#f44335"/><path d="m227.664062 8.695312-9.472656 102.402344h-66.386718l28.414062-102.402344zm0 0" fill="#ecf0f1"/><path d="m180.21875 8.695312-28.414062 102.402344h-66.390626l47.445313-102.402344zm0 0" fill="#f44335"/><path d="m132.859375 8.695312-47.445313 102.402344h-67.070312c.621094-1.742187 1.546875-3.359375 2.730469-4.78125l71.167969-85.332031c6.488281-7.765625 16.078124-12.265625 26.195312-12.289063zm0 0" fill="#ecf0f1"/><path d="m76.882812 307.363281h102.398438v145.066407h-102.398438zm0 0" fill="#c81e1e"/><path d="m76.882812 307.363281h76.796876v145.066407h-76.796876zm0 0" fill="#f44335"/><g fill="#a0522d"><path d="m264.613281 311.628906c0 11.78125-9.550781 21.332032-21.332031 21.332032s-21.332031-9.550782-21.332031-21.332032 9.550781-21.332031 21.332031-21.332031 21.332031 9.550781 21.332031 21.332031zm0 0"/><path d="m307.28125 251.894531c0 11.785157-9.550781 21.335938-21.332031 21.335938-11.785157 0-21.335938-9.550781-21.335938-21.335938 0-11.78125 9.550781-21.332031 21.335938-21.332031 11.78125 0 21.332031 9.550781 21.332031 21.332031zm0 0"/><path d="m384.082031 251.894531c0 11.785157-9.550781 21.335938-21.335937 21.335938-11.78125 0-21.332032-9.550781-21.332032-21.335938 0-11.78125 9.550782-21.332031 21.332032-21.332031 11.785156 0 21.335937 9.550781 21.335937 21.332031zm0 0"/><path d="m426.746094 311.628906c0 11.78125-9.550782 21.332032-21.332032 21.332032s-21.332031-9.550782-21.332031-21.332032 9.550781-21.332031 21.332031-21.332031 21.332032 9.550781 21.332032 21.332031zm0 0"/></g><path d="m375.546875 375.628906v8.535156c-.027344 9.414063-7.652344 17.039063-17.066406 17.066407h-68.265625c-9.414063-.027344-17.039063-7.652344-17.066406-17.066407v-8.535156c.03125-23.320312 15.820312-43.667968 38.398437-49.492187 4.171875-1.132813 8.476563-1.707031 12.800781-1.707031 28.257813.042968 51.15625 22.941406 51.199219 51.199218zm0 0" fill="#783e22"/><path d="m349.949219 375.628906v8.535156c-.027344 9.414063-7.652344 17.039063-17.066407 17.066407h-42.667968c-9.414063-.027344-17.039063-7.652344-17.066406-17.066407v-8.535156c.03125-23.320312 15.820312-43.667968 38.398437-49.492187 8.878906 2.183593 16.972656 6.792969 23.382813 13.3125 9.648437 9.5625 15.058593 22.59375 15.019531 36.179687zm0 0" fill="#a0522d"/><path d="m179.28125 222.027344v85.335937h-102.398438v-85.335937c.011719-4.707032 3.824219-8.519532 8.53125-8.53125h85.332032c4.710937.011718 8.523437 3.824218 8.535156 8.53125zm0 0" fill="#0377bc"/><path d="m153.679688 222.027344v85.335937h-76.796876v-85.335937c.011719-4.707032 3.824219-8.519532 8.53125-8.53125h59.734376c4.707031.011718 8.519531 3.824218 8.53125 8.53125zm0 0" fill="#02a9f4"/><path d="m495.015625 512.164062h-477.867187c-9.421876-.011718-17.054688-7.648437-17.0664068-17.066406v-25.601562c.015625-14.132813 11.4687498-25.585938 25.5976568-25.601563h460.800781c14.132812.015625 25.585937 11.46875 25.601562 25.601563v25.601562c-.011719 9.417969-7.644531 17.054688-17.066406 17.066406zm-469.335937-51.203124c-4.710938.007812-8.527344 3.824218-8.53125 8.535156v25.601562h477.867187v-25.601562c-.003906-4.710938-3.824219-8.527344-8.535156-8.535156zm0 0"/><path d="m469.414062 460.960938h-426.667968c-4.710938 0-8.53125-3.820313-8.53125-8.53125v-274.261719c0-4.714844 3.820312-8.535157 8.53125-8.535157 4.714844 0 8.535156 3.820313 8.535156 8.535157v265.726562h409.601562v-265.726562c0-4.714844 3.820313-8.535157 8.53125-8.535157 4.714844 0 8.535157 3.820313 8.535157 8.535157v274.261719c0 4.710937-3.820313 8.53125-8.535157 8.53125zm0 0"/><path d="m392.613281 187.894531c-13.433593 0-26.082031-6.332031-34.132812-17.089843-8.046875 10.757812-20.695313 17.089843-34.132813 17.089843-13.433594 0-26.085937-6.332031-34.132812-17.089843-8.050782 10.757812-20.699219 17.089843-34.132813 17.089843-13.4375 0-26.085937-6.332031-34.132812-17.089843-8.050781 10.757812-20.699219 17.089843-34.132813 17.089843-13.4375 0-26.085937-6.332031-34.136718-17.089843-8.046876 10.753906-20.691407 17.089843-34.125 17.089843-13.433594.003907-26.082032-6.324219-34.132813-17.078125-8.933594 11.933594-23.453125 18.335938-38.289063 16.882813-22.160156-2.679688-38.75-21.601563-38.519531-43.921875v-26.503906c.003907-5.988282 2.105469-11.789063 5.941407-16.390626l71.132812-85.367187c8.097656-9.738281 20.109375-15.367187 32.777344-15.351563h275.234375c12.664062-.015624 24.679687 5.613282 32.773437 15.351563l71.140625 85.371094c3.832031 4.601562 5.929688 10.402343 5.933594 16.386719v26.503906c.238281 22.320312-16.355469 41.242187-38.515625 43.925781-14.835938 1.453125-29.355469-4.949219-38.292969-16.882813-8.050781 10.746094-20.695312 17.074219-34.125 17.074219zm-274.148437-170.664062c-7.597656-.007813-14.804688 3.367187-19.660156 9.214843l-71.140626 85.367188c-1.28125 1.53125-1.984374 3.464844-1.984374 5.460938v26.503906c-.289063 13.542968 9.640624 25.140625 23.066406 26.933594 7.21875.742187 14.410156-1.636719 19.761718-6.539063 5.328126-4.855469 8.367188-11.730469 8.375-18.941406 0-4.714844 3.820313-8.535157 8.53125-8.535157 4.714844 0 8.535157 3.820313 8.535157 8.535157 0 14.136719 11.460937 25.597656 25.597656 25.597656 14.140625 0 25.601563-11.460937 25.601563-25.597656 0-4.714844 3.820312-8.535157 8.53125-8.535157 4.714843 0 8.535156 3.820313 8.535156 8.535157 0 14.136719 11.460937 25.597656 25.601562 25.597656 14.136719 0 25.597656-11.460937 25.597656-25.597656 0-4.714844 3.820313-8.535157 8.535157-8.535157 4.710937 0 8.53125 3.820313 8.53125 8.535157 0 14.136719 11.460937 25.597656 25.601562 25.597656 14.136719 0 25.597657-11.460937 25.597657-25.597656 0-4.714844 3.820312-8.535157 8.535156-8.535157 4.710937 0 8.53125 3.820313 8.53125 8.535157 0 14.136719 11.464844 25.597656 25.601562 25.597656 14.140625 0 25.601563-11.460937 25.601563-25.597656 0-4.714844 3.820312-8.535157 8.53125-8.535157 4.714843 0 8.535156 3.820313 8.535156 8.535157 0 14.136719 11.460937 25.597656 25.597656 25.597656 14.140625 0 25.601563-11.460937 25.601563-25.597656 0-4.714844 3.820312-8.535157 8.53125-8.535157 4.714844 0 8.535156 3.820313 8.535156 8.535157.007812 7.210937 3.046875 14.085937 8.375 18.941406 5.347656 4.902344 12.542969 7.28125 19.757812 6.535156 13.425782-1.792969 23.355469-13.386719 23.066407-26.929687v-26.503906c0-1.992188-.699219-3.925782-1.972657-5.460938l-71.152343-85.367188c-4.851563-5.847656-12.058594-9.222656-19.65625-9.214843zm0 0"/><path d="m493.820312 119.628906h-374.273437c-4.710937 0-8.53125-3.820312-8.53125-8.53125 0-4.714844 3.820313-8.535156 8.53125-8.535156h374.273437c4.710938 0 8.53125 3.820312 8.53125 8.535156 0 4.710938-3.820312 8.53125-8.53125 8.53125zm0 0"/><path d="m85.414062 119.628906h-67.070312c-4.714844 0-8.535156-3.820312-8.535156-8.53125 0-4.714844 3.820312-8.535156 8.535156-8.535156h67.070312c4.714844 0 8.535157 3.820312 8.535157 8.535156 0 4.710938-3.820313 8.53125-8.535157 8.53125zm0 0"/><path d="m179.28125 460.960938h-102.398438c-4.714843 0-8.535156-3.820313-8.535156-8.53125v-230.402344c.011719-9.417969 7.644532-17.054688 17.066406-17.066406h85.332032c9.421875.011718 17.058594 7.648437 17.070312 17.066406v230.402344c0 4.710937-3.824218 8.53125-8.535156 8.53125zm-93.867188-17.066407h85.332032v-221.867187h-85.332032zm0 0"/><path d="m179.28125 315.894531h-102.398438c-4.714843 0-8.535156-3.820312-8.535156-8.53125 0-4.714843 3.820313-8.535156 8.535156-8.535156h102.398438c4.710938 0 8.535156 3.820313 8.535156 8.535156 0 4.710938-3.824218 8.53125-8.535156 8.53125zm0 0"/><path d="m409.691406 85.496094c-2.945312.003906-5.683594-1.511719-7.242187-4.011719l-42.667969-68.265625c-1.699219-2.585938-1.863281-5.890625-.433594-8.632812 1.429688-2.742188 4.234375-4.4960942 7.328125-4.58203175 3.09375-.08593745 5.992188 1.50781275 7.574219 4.16796875l42.664062 68.269531c1.648438 2.625 1.738282 5.941406.234376 8.65625-1.5 2.714844-4.355469 4.398438-7.457032 4.398438zm0 0"/><path d="m349.949219 85.5c-3.558594-.003906-6.742188-2.210938-7.992188-5.542969l-25.601562-68.265625c-1.652344-4.414062.582031-9.332031 4.996093-10.988281 4.414063-1.652344 9.332032.582031 10.988282 4.996094l25.597656 68.265625c.984375 2.621094.617188 5.558594-.976562 7.859375s-4.214844 3.675781-7.011719 3.675781zm0 0"/><path d="m290.207031 85.496094c-4.300781-.003906-7.925781-3.207032-8.460937-7.476563l-8.53125-68.265625c-.519532-4.640625 2.789062-8.839844 7.421875-9.417968 4.632812-.578126 8.871093 2.675781 9.511719 7.300781l8.53125 68.269531c.585937 4.675781-2.730469 8.9375-7.40625 9.523438-.355469.042968-.710938.066406-1.066407.066406zm0 0"/><path d="m102.472656 85.496094c-3.101562 0-5.957031-1.683594-7.460937-4.398438-1.5-2.714844-1.410157-6.03125.234375-8.65625l42.667968-68.269531c1.582032-2.660156 4.476563-4.2539062 7.570313-4.16796875 3.09375.08593755 5.898437 1.83984375 7.332031 4.58203175 1.429688 2.742187 1.265625 6.046874-.433594 8.632812l-42.667968 68.265625c-1.558594 2.5-4.296875 4.015625-7.242188 4.011719zm0 0"/><path d="m162.214844 85.5c-2.800782 0-5.421875-1.375-7.015625-3.675781s-1.957031-5.238281-.976563-7.859375l25.601563-68.265625c1.652343-4.414063 6.574219-6.648438 10.988281-4.996094 4.410156 1.65625 6.648438 6.574219 4.992188 10.988281l-25.597657 68.265625c-1.25 3.332031-4.433593 5.539063-7.992187 5.542969zm0 0"/><path d="m221.957031 85.496094c-.355469 0-.714843-.023438-1.066406-.066406-4.675781-.585938-7.992187-4.847657-7.410156-9.523438l8.535156-68.269531c.339844-3.054688 2.300781-5.691407 5.128906-6.898438s6.085938-.7968748 8.53125 1.066407c2.441407 1.867187 3.691407 4.902343 3.273438 7.949218l-8.535157 68.265625c-.53125 4.269531-4.15625 7.472657-8.457031 7.476563zm0 0"/><path d="m243.28125 341.496094c-12.078125 0-22.96875-7.277344-27.59375-18.4375-4.621094-11.160156-2.066406-24.007813 6.476562-32.546875 8.539063-8.542969 21.386719-11.097657 32.546876-6.476563 11.160156 4.625 18.4375 15.515625 18.4375 27.59375-.019532 16.488282-13.378907 29.847656-29.867188 29.867188zm0-42.667969c-7.070312 0-12.800781 5.730469-12.800781 12.800781 0 7.070313 5.730469 12.800782 12.800781 12.800782s12.800781-5.730469 12.800781-12.800782c-.007812-7.066406-5.734375-12.792968-12.800781-12.800781zm0 0"/><path d="m285.949219 281.761719c-16.496094 0-29.867188-13.371094-29.867188-29.867188 0-16.492187 13.371094-29.867187 29.867188-29.867187 16.492187 0 29.867187 13.375 29.867187 29.867187-.023437 16.488281-13.382812 29.847657-29.867187 29.867188zm0-42.664063c-7.070313 0-12.800781 5.730469-12.800781 12.796875 0 7.070313 5.730468 12.800781 12.800781 12.800781 7.066406 0 12.796875-5.730468 12.796875-12.800781-.007813-7.066406-5.730469-12.789062-12.796875-12.796875zm0 0"/><path d="m362.746094 281.761719c-16.492188 0-29.863282-13.371094-29.863282-29.867188 0-16.492187 13.371094-29.867187 29.863282-29.867187 16.496094 0 29.867187 13.375 29.867187 29.867187-.019531 16.488281-13.378906 29.847657-29.867187 29.867188zm0-42.664063c-7.066406 0-12.796875 5.730469-12.796875 12.796875 0 7.070313 5.730469 12.800781 12.796875 12.800781 7.070312 0 12.800781-5.730468 12.800781-12.800781-.007813-7.066406-5.734375-12.789062-12.800781-12.796875zm0 0"/><path d="m405.414062 341.496094c-12.078124 0-22.96875-7.277344-27.59375-18.4375-4.621093-11.160156-2.066406-24.007813 6.476563-32.546875 8.539063-8.542969 21.386719-11.097657 32.546875-6.476563 11.160156 4.625 18.4375 15.515625 18.4375 27.59375-.019531 16.488282-13.378906 29.847656-29.867188 29.867188zm0-42.667969c-7.070312 0-12.800781 5.730469-12.800781 12.800781 0 7.070313 5.730469 12.800782 12.800781 12.800782 7.070313 0 12.800782-5.730469 12.800782-12.800782-.007813-7.066406-5.734375-12.792968-12.800782-12.800781zm0 0"/><path d="m128.082031 350.027344h-17.066406c-4.714844 0-8.535156-3.820313-8.535156-8.53125 0-4.714844 3.820312-8.535156 8.535156-8.535156h17.066406c4.710938 0 8.53125 3.820312 8.53125 8.535156 0 4.710937-3.820312 8.53125-8.53125 8.53125zm0 0"/><path d="m358.480469 409.761719h-68.265625c-14.132813-.015625-25.585938-11.46875-25.601563-25.597657v-8.535156c0-32.988281 26.746094-59.734375 59.734375-59.734375 32.988282 0 59.734375 26.746094 59.734375 59.734375v8.535156c-.015625 14.128907-11.46875 25.582032-25.601562 25.597657zm-34.132813-76.800781c-23.550781.03125-42.636718 19.117187-42.667968 42.667968v8.535156c.003906 4.710938 3.824218 8.527344 8.535156 8.53125h68.265625c4.710937-.003906 8.53125-3.820312 8.535156-8.53125v-8.535156c-.027344-23.550781-19.113281-42.636718-42.667969-42.667968zm0 0"/></svg>