<?xml version="1.0" encoding="utf-8"?>
<!-- Generator: Adobe Illustrator 16.0.0, SVG Export Plug-In . SVG Version: 6.00 Build 0)  -->
<!DOCTYPE svg PUBLIC "-//W3C//DTD SVG 1.1//EN" "http://www.w3.org/Graphics/SVG/1.1/DTD/svg11.dtd">
<svg version="1.1" id="Capa_1" xmlns="http://www.w3.org/2000/svg" xmlns:xlink="http://www.w3.org/1999/xlink" x="0px" y="0px"
	 width="512px" height="512px" viewBox="0 0 512 512" enable-background="new 0 0 512 512" xml:space="preserve">
<g>
	<path fill-rule="evenodd" clip-rule="evenodd" fill="#FD6516" d="M148.151,70.737c22.708-16.602,48.742-25.081,75.815-31.01
		c2.918-0.639,6.409,0.143,8.091-3.409c3.179,0,6.358,0,9.537,0c10.597,2.691,21.192,2.691,31.789,0c3.18,0,6.358,0,9.537,0
		c23.731,7.087,48.437,11.34,70.312,23.86c7.64,4.371,16.066,7.534,22.294,14.144c-5.126,7.736-13.306,7.547-21.093,7.789
		c-14.659,0.453-29.343,0.475-43.995,0.053c-9.886-0.286-18.59,1.984-26.237,8.18c-10.547,0.239-7.331-9.611-10.521-14.706
		c-3.694-5.901-8.374-9.847-15.423-8.897c-7.616,1.028-12.178,6.309-13.727,13.542c-1.548,7.233,2.716,12.02,8.52,15.481
		c5.198,3.102,10.018,1.459,14.894-1.319c3.845-2.191,7.242-6.835,12.686-3.38c2.249,7.233-2.578,10.899-7.308,14.646
		c-15.491,8.267-27.873,3.387-38.474-9.093c-3.91-18.049-16.042-22.312-32.832-20.843c-12.036,1.055-24.249,0.425-36.373,0.087
		C159.451,75.691,152.778,76.517,148.151,70.737z"/>
	<path fill-rule="evenodd" clip-rule="evenodd" fill="#EE3B15" d="M514.979,319.239c0,3.179,0,6.358,0,9.537
		c-2.977,3.437-6.668,5.684-11.109,6.727c-1.425,0.5-2.861,0.926-4.301,1.376c-5.467,2.337-10.241,8.915-17.12,2.862
		c-8.302-7.615-18.633-6.594-28.526-6.256c-44.672,1.53-89.333,0.326-133.998-0.111c-11.073-0.109-22.105,0.288-33.096,1.62
		c-2.553,0.037-5.025-0.419-7.36-1.388c-1.372-0.614-2.691-1.403-3.926-2.263c-3.705-2.646-7.214-6.433-12.196-2.188
		c-3.648,3.237-5.3,8.307-9.863,10.685c-2.393,0.624-4.582,0.255-6.552-1.301c-1.525-2.052-2.253-4.39-2.606-6.889
		c-0.346-2.598-0.355-5.193-0.091-7.804c0.309-2.741,1.122-5.29,2.767-7.541c12.273-7.956,26.374-7.01,39.831-6.92
		c28.447,0.193,56.93,2.785,85.335,1.779c39.436-1.394,78.926,0.506,118.316-2.555c6.821-0.531,13.803-0.597,19.779,3.85
		C512.242,314.431,513.393,316.985,514.979,319.239z"/>
	<path fill-rule="evenodd" clip-rule="evenodd" fill="#EE3A15" d="M3.178,335.134c0-5.299,0-10.595,0-15.895
		c1.52-2.257,2.825-4.753,5.855-5.37c24.113-3.22,48.411-3.058,72.5-1.183c39.038,3.042,77.867-3.136,116.812-1.115
		c8.762,0.453,18.482-1.036,23.002,9.667c1.051,6.867-2.772,9.882-8.803,11.167c-6.815,0.422-13.268,2.462-19.688,4.685
		c-1.745,0.304-3.488,0.345-5.245,0.211c-41.608-1.521-83.224-0.487-124.832-0.456c-6.486,0.003-14.567-0.699-15.023,9.567
		c0.224,6.122-0.323,12.026-4.661,16.851c-1.223,1.143-2.693,1.596-4.35,1.359c-5.617-7.236-1.376-17.344-7.137-24.54
		c-3.142-6.842-8.829-7.637-15.33-6.463C11.942,334.401,7.903,337.711,3.178,335.134z"/>
	<path fill-rule="evenodd" clip-rule="evenodd" fill="#EE604E" d="M34.992,338.226c4.985,8.013,4.453,16.733,3.256,25.537
		c-4.14,11.573-14.679,11.598-24.177,13.485c-1.062,0.664-2.161,1.282-3.238,1.934c-0.593,0.199-1.197,0.379-1.801,0.56
		c-5.17-4.154-0.183-12.026-5.855-15.997c0-8.479,0-16.953,0-25.432C13.762,331.186,24.352,325.401,34.992,338.226z"/>
	<path fill-rule="evenodd" clip-rule="evenodd" fill="#ED3715" d="M502.228,331.971c4.25-1.065,8.501-2.13,12.751-3.194
		c0,5.299,0,10.595,0,15.895c-3.727,5.202,0.044,11.558-2.604,16.928c-3.653,10.223-2.217,22.044-9.757,31.044
		c-0.694-0.652-1.39-1.301-2.096-1.946c-1.555-2.499-2.241-5.269-2.555-8.158C499.182,365.672,493.953,348.247,502.228,331.971z"/>
	<path fill-rule="evenodd" clip-rule="evenodd" fill="#EF3D15" d="M34.992,338.226c-10.629-9.012-21.22-3.864-31.814,0.087
		c0-1.059,0-2.12,0-3.179C14.36,330.226,25.926,321.363,34.992,338.226z"/>
	<path fill-rule="evenodd" clip-rule="evenodd" fill="#FE7B36" d="M273.383,36.318c-10.597,4.964-21.191,5.076-31.789,0
		C252.192,36.318,262.786,36.318,273.383,36.318z"/>
	<path fill-rule="evenodd" clip-rule="evenodd" fill="#F26446" d="M6.481,316.107c-1.101,1.043-2.203,2.089-3.303,3.132
		c0-6.357,0-12.716,0-19.073c0.938-0.027,1.874-0.059,2.811-0.093c0.64,0.567,1.278,1.139,1.925,1.707
		C10.356,306.844,10.556,311.689,6.481,316.107z"/>
	<path fill-rule="evenodd" clip-rule="evenodd" fill="#F36F53" d="M514.979,319.239c-1.066-1.062-2.133-2.123-3.199-3.185
		c-3.059-4.514-4.311-9.214-1.475-14.333c0.649-0.55,1.306-1.096,1.961-1.643c0.912-0.245,1.817-0.217,2.713,0.087
		C514.979,306.523,514.979,312.882,514.979,319.239z"/>
	<path fill-rule="evenodd" clip-rule="evenodd" fill="#F0583D" d="M512.374,361.599c-0.532-5.857-2.584-11.952,2.604-16.928
		c0,5.299,0,10.595,0,15.895C514.367,361.556,513.499,361.899,512.374,361.599z"/>
	<path fill-rule="evenodd" clip-rule="evenodd" fill="#F04015" d="M5.989,300.073c0.346-3.194,0.692-6.389,1.039-9.583
		c1.217-9.003,7.895-9.86,15.101-10.512c21.061-1.903,42.08-0.649,63.157-0.481c60.194,0.481,120.442-1.322,180.607-0.782
		c53.319,0.481,106.647-0.717,159.95,0.795c9.059,0.258,17.901-1.413,26.87-1.422c15.191,7.6,25.188,1.291,32.522-12.213
		c7.01-2.238,13.779-2.666,19.829,2.512c2.4,10.564,4.8,21.128,7.201,31.692l-0.773-0.227l-0.768,0.242
		c-8.052,7.299-18.024,4.887-27.274,4.945c-127.938,0.829-255.88-0.239-383.819,0.164c-24.269,0.075-48.531,2.242-72.802-0.071
		c-6.741-0.643-13.92,0.618-19.387-4.945L5.989,300.073z"/>
	<path fill-rule="evenodd" clip-rule="evenodd" fill="#F65016" d="M476.414,192.152c4.626,4.442,9.237,8.891,9.683,15.879
		c-3.568,7.975-11.066,7.792-17.665,7.345c-42.617-2.893-85.243,2.012-127.979-1.307c-22.287-1.732-45.22-0.115-67.827,1.272
		c-5.896,0.363-10.032,2.71-12.082,8.37c-1.45,2.316-3.232,4.104-6.254,3.877c-5.349-4.945-4.848-13.11-10.086-18.092
		c-6.971-5.529-15.501-2.27-23.055-4.222c-3.521-0.91-7.974-1.505-7.78-6.249c0.132-3.244,3.213-5.262,6.297-6.5
		c2.986-1.205,6.148-1.729,9.316-1.745c80.942-0.373,161.885-0.531,242.827,0.211C473.396,191.007,474.897,191.693,476.414,192.152z
		"/>
	<path fill-rule="evenodd" clip-rule="evenodd" fill="#F54E15" d="M257.493,223.873c-0.98-10.974,2.978-13.324,14.646-13.554
		c20.107-0.392,40.271,0.919,60.534-1.531c15.345-1.853,31.224,2.906,47.131,2.555c29.267-0.649,58.558-0.199,87.838-0.177
		c6.34,0.003,12.755,0.571,18.454-3.135c3.48,4.737,5.943,9.896,6.53,15.829c-6.542,4.138-13.91,4.61-21.325,4.66
		c-65.34,0.416-130.681,0.016-196.021,0.034C268.982,228.554,262.506,228.905,257.493,223.873z"/>
	<path fill-rule="evenodd" clip-rule="evenodd" fill="#FC6116" d="M273.383,103.072c1.792-4.415,6.878-7.206,6.301-12.787
		l-0.034,0.016c6.968-13.107,18.813-12.828,31.584-12.936c21.433-0.18,43.128,3.219,64.292-3.042
		c10.839,5.535,20.532,12.582,28.648,21.709c1.577,7.177,1.598,14.091-3.405,20.169c-3.061,0.698-5.317-0.841-7.486-2.654
		c-7.376-4.911-15.603-5.858-24.242-5.818c-25.404,0.115-50.811,0.14-76.216-0.021C286.054,107.664,278.899,108.641,273.383,103.072
		z"/>
	<path fill-rule="evenodd" clip-rule="evenodd" fill="#F95916" d="M451.232,147.62c3.02,2.523,5.77,5.221,6.004,9.505
		c-8.369,10.362-19.858,11.058-31.717,9.856c-35.879-3.632-71.772-2.418-107.676-0.695c-18.98,0.913-37.798-0.292-56.414-4.209
		c-7.448-15.711-2.646-24.003,14.303-24.705c16.882-0.699,33.731,1.133,50.468,2.3c27.928,1.946,55.8-4.97,83.57,0.478
		c1.564,0.32,3.084,0.881,4.514,1.596C423.979,159.988,437.731,153.019,451.232,147.62z"/>
	<path fill-rule="evenodd" clip-rule="evenodd" fill="#F85616" d="M464.016,166.696c1.972,3.17,3.942,6.342,5.914,9.512
		c-7.122,10.121-17.984,7.634-27.623,7.457c-74.433-1.372-148.855,0.767-223.284,0.366c-5.36-0.028-11.804-2.769-15.716,3.8
		c-0.516,1.602-1.279,3.073-2.232,4.448c-11.613,4.471-15.517-6.572-22.623-11.244c-1.771-2.272-2.414-4.778-1.634-7.612
		c0.92-1.72,2.184-3.095,3.791-4.191c13.51-6.904,28.143-4.644,42.081-3.623c14.738,1.083,29.251,0.031,43.842,0.096
		c55.913,0.249,111.834-1.968,167.726,0.046C444.169,166.109,454.252,162.369,464.016,166.696z"/>
	<path fill-rule="evenodd" clip-rule="evenodd" fill="#F75316" d="M200.244,192.159c0.008-1.083,0.017-2.17,0.025-3.253
		c3.216-5.132,8.14-5.948,13.732-5.96c71.187-0.159,142.383-1.223,213.556,0.006c15.445,0.267,31.49-4.635,46.586,2.772
		c0.757,2.142,1.515,4.287,2.271,6.429c-6.181,4.125-13.183,3.092-19.984,3.092c-74.35,0.028-148.699-0.021-223.048,0.093
		c-5.943,0.009-12.479-1.754-18.69,3.61c11.772,7.733,27.455-4.573,36.415,9.086c-11.201,4.548-22.656-0.515-33.95,0.928
		C207.186,207.727,199.516,204.16,200.244,192.159z"/>
	<path fill-rule="evenodd" clip-rule="evenodd" fill="#F44C16" d="M257.493,223.873c71.136,0,142.272-0.137,213.408,0.205
		c7.25,0.038,14.481-3.334,21.726-0.217c2.66,2.623,3.651,5.849,3.413,9.512c-4.575,5.666-10.944,6.33-17.339,5.361
		c-20.179-3.048-40.145,1.149-60.218,1.307c-5.476,0.043-10.375,1.872-14.704,5.181c-7.439,2.226-16.366,1.968-19.527,11.555
		c-1.548,0.453-3.073,0.459-4.624,0.034c-2.287-1.261-3.522-3.257-4.15-5.706c0.417-8.77-2.345-13.563-12.544-13.455
		c-31.727,0.338-63.464,0.351-95.195-0.034c-6.022-0.075-11.065,3.52-16.929,3.766c-6.322-2.102-3.533-6.255-2.283-10.077
		c1.324-2.241,3.198-3.75,5.802-4.253C255.385,225.99,256.438,224.932,257.493,223.873z"/>
	<path fill-rule="evenodd" clip-rule="evenodd" fill="#F85616" d="M464.016,166.696c-17.669,7.702-36.166,1.546-54.198,2.456
		c-42.182,2.126-84.582-0.397-126.819,1.071c-26.757,0.929-53.385,0.276-80.061-0.481c-8.562-0.242-16.787,0.866-24.922,3.269
		c-6.434,2.049-9.869-2.536-13.735-6.203c-0.623-1.527-0.764-3.095-0.453-4.712c3.935-8.167,11.483-8.382,18.827-7.935
		c14.565,0.888,29.144,1.716,43.68,3.076c2.248,0.546,4.373,1.438,6.434,2.453c6.924,4.365,14.067,5.932,21.656,1.595
		c2.007-0.807,4.086-1.167,6.248-0.99c49.169,0,98.35-0.59,147.502,0.329c16.612,0.311,33.162,4.554,49.063-3.499
		C458.749,160.845,463.95,161.953,464.016,166.696z"/>
	<path fill-rule="evenodd" clip-rule="evenodd" fill="#F34916" d="M400.483,246.246c0.609-15.677,13.913-10.515,21.218-11.042
		c24.695-1.779,49.547-1.391,74.34-1.832c6.886,10.673,7.415,22.982,9.024,35.015c-7.277,0.006-14.556,0.013-21.834,0.019
		c-6.62-11.915-17.979-10.282-28.866-10.046c-18.77-0.969-37.495-4.92-55.563,5.324c-6.768,3.837-15.904,4.032-17.335-8.009
		c1.097-0.022,2.196-0.041,3.293-0.059C389.253,251.238,395.74,250.204,400.483,246.246z"/>
	<path fill-rule="evenodd" clip-rule="evenodd" fill="#F75316" d="M474.143,185.723c-62.957,0-125.927-0.708-188.866,0.326
		c-28.316,0.463-56.824-2.216-85.007,2.856c-4.55-2.537-7.37-5.818-0.707-8.553c3.673-1.509,8.279-0.857,12.471-0.965
		c54.194-1.388,108.388,1.369,162.643-1.512c23.76-1.263,47.97,1.267,71.996,1.599c8.009,0.108,15.69-0.841,23.258-3.266
		C472.408,178.903,474.805,181.635,474.143,185.723z"/>
	<path fill-rule="evenodd" clip-rule="evenodd" fill="#D4702D" d="M451.232,147.62c-19.047,15.416-23.565,15.813-34.995,2.542
		c-0.937-1.083,0.026-3.803,0.105-5.762c-4.438-5.436-4.021-11.055-0.661-16.798c3.171-3.825,5.657-8.432,10.953-9.925
		C436.292,126.46,444.766,136.214,451.232,147.62z"/>
	<path fill-rule="evenodd" clip-rule="evenodd" fill="#DD752E" d="M400.563,115.781c-0.307-6.857-0.521-13.703,3.611-19.75
		c7.109,4.557,13.322,10.089,18.332,16.922c-0.269,0.699-0.536,1.397-0.795,2.102C414.892,121.885,407.906,124.07,400.563,115.781z"
		/>
	<path fill-rule="evenodd" clip-rule="evenodd" fill="#DD752E" d="M426.634,117.678c-2.347,3.604-4.693,7.205-7.039,10.81
		c-5.383-5.852-0.355-10.089,2.285-14.693l0.626-0.841C423.881,114.527,425.258,116.104,426.634,117.678z"/>
	<path fill-rule="evenodd" clip-rule="evenodd" fill="#F14315" d="M454.58,281.093c-30.445,5.427-61.18,2.074-91.744,2.434
		c-49.85,0.59-99.773-2.505-149.575-1.03c-41.443,1.227-82.879,1.807-124.287,1.381c-22.327-0.229-44.579-2.049-66.938,0.178
		c-6.071,0.602-11.441,0.875-15.008,6.436c2.012-9.49,0.281-19.785,6.092-28.461c20.629-5.526,41.85-4.707,62.681-3.717
		c33.709,1.608,67.401-1.272,101.063,1.077c10.537,0.736,21.119,0.727,31.373,3.8c3.333,1.624,6.609,3.536,10.488,3.17
		c56.84-5.401,113.723-2.626,170.626-1.499c15.684,0.311,31.408-3.043,47.261-1.271c6.261,0.699,12.769-0.14,18.317,3.872
		C458.276,272.097,458.378,276.647,454.58,281.093z"/>
	<path fill-rule="evenodd" clip-rule="evenodd" fill="#FB5E16" d="M421.88,113.794c-0.762,4.896-1.522,9.794-2.285,14.693
		c-5.275,4.448-2.389,10.564-3.252,15.913c-1.028,0-2.058-0.003-3.087-0.006c-4.708-4.685-3.373-10.726-3.523-15.752
		c-74.989-0.329-149.831-1.17-224.638,1.289c-13.208,0.435-26.319-3.58-39.492-0.354c-3.14,0.745-6.285,0.36-8.851-1.44
		c-11.645-8.17-22.024-6.066-31.641,3.533c-8.674,3.449-16.896,5.613-19.665-7.146c4.212-5.188,6.289-12.259,13.262-15.01
		c6.656-2.226,13.544-1.987,20.424-1.99c82.971-0.065,165.942,0.593,248.914,0.369c10.007-0.025,20.098-0.338,29.304,4.719
		c1.071,1.059,2.143,2.114,3.214,3.169C408.078,119.503,415.01,116.979,421.88,113.794z"/>
	<path fill-rule="evenodd" clip-rule="evenodd" fill="#FB5F16" d="M397.349,112.612c-46.424-1.232-92.928-1.089-139.298-1.059
		c-46.376,0.034-92.874-0.183-139.3,1.028c-6.83,0.18-13.808,0.851-20.043-3.067c4.976-4.368,9.954-8.732,14.931-13.098
		c7.246-3.542,14.873-4.926,22.957-4.892c26.889,0.115,53.779,0.043,80.667,0.043c7.506,0,14.748,0.776,21.153,5.15
		c10.39,9.077,21.9,12.001,34.967,6.355c32.685,0.003,65.374-0.329,98.048,0.217C380.696,103.441,391.558,101.697,397.349,112.612z"
		/>
	<path fill-rule="evenodd" clip-rule="evenodd" fill="#F34716" d="M206.627,265.205c-30.414-1.053-61.051-4.834-91.179-2.379
		c-28.579,2.332-57.2-5.811-85.436,2.111c-5.978,1.677-11.213-2.191-16.893-2.908c1.125-4.278,2.252-8.553,3.377-12.831
		c4.342-7.944,12.033-7.258,19.34-7.441c21.475-0.543,43.01,1.205,64.416-1.751c25.069,2.791,50.258,0.229,75.372,1.484
		c7.813,0.388,15.798-0.515,23.034,3.542c6.292,5.02,11.315,10.85,11.96,19.371C209.615,266.26,208.283,266.53,206.627,265.205z"/>
	<path fill-rule="evenodd" clip-rule="evenodd" fill="#F44A16" d="M200.268,249.304c-21.408-6.32-43.382-1.869-65.034-3.467
		c-11.178-0.823-22.839,3.741-33.51-2.89c-21.94,3.775-44.061-1.863-66.077,1.313c-5.375,0.773-11.419,1.826-16.768-1.366
		c-0.407-4.756,0.326-9.155,3.942-12.654c13.772-9.381,29.529-6.835,44.486-6.302c35.395,1.257,70.636-0.922,105.911-2.664
		c3.392-0.801,6.81-1.04,10.265-0.475c7.084,1.682,11.75,6.531,15.842,12.141C202.012,238.249,205.084,243.558,200.268,249.304z"/>
	<path fill-rule="evenodd" clip-rule="evenodd" fill="#FC6216" d="M238.416,96.717c-41.592-0.103-83.185-0.202-124.777-0.301
		c9.841-10.794,21.533-19.104,34.513-25.679c17.752,0.183,35.503,0.469,53.257,0.525C229.829,71.352,229.829,71.286,238.416,96.717z
		"/>
	<path fill-rule="evenodd" clip-rule="evenodd" fill="#F65016" d="M32.064,208.025c2.938-6.429,5.877-12.858,8.815-19.291
		c18.604-8.264,38.446-4.154,57.664-5.044c16.104-0.749,32.702,0.677,47.053,10.164c9.299,3.812,20.081,6.004,21.001,19.064
		c-0.86,1.869-2.28,3.045-4.269,3.564c-37.009-0.727-74.018-0.134-111.021-0.603C44.088,215.786,36.097,216.444,32.064,208.025z"/>
	<path fill-rule="evenodd" clip-rule="evenodd" fill="#F54D16" d="M32.064,208.025c5.667,3.694,12.05,3.148,18.361,3.142
		c29.492-0.021,58.987,0.149,88.477-0.105c9.017-0.078,17.802,0.565,26.404,3.272c7.202-0.854,10.364,2.334,9.535,9.521
		c-7.917,4.489-16.182,4.88-25.229,4.007c-18.052-1.735-36.179-0.764-54.172,1.847c-18.098,2.626-35.958-4.461-54.458-0.779
		c-5.208,1.037-12.026,2.108-18.161,1.31C24.677,222.324,27.428,214.783,32.064,208.025z"/>
	<path fill-rule="evenodd" clip-rule="evenodd" fill="#F75516" d="M146.3,198.411c-33.762-18.241-70.27-6.575-105.42-9.676
		c6.912-13.163,13.302-26.651,23.497-37.771c11.817-2.899,19.395,1.316,22.195,13.349c0.734,3.157,1.813,6.007,4.666,7.86
		c1.293,0.835,2.527,1.735,3.783,2.614c8.785,5.883,19.356,3.815,28.914,6.414c8.863,2.409,17.063,5.085,22.802,12.709
		C147.538,195.502,147.387,197.001,146.3,198.411z"/>
	<path fill-rule="evenodd" clip-rule="evenodd" fill="#FA5C18" d="M89.069,176.152c-1.819-1.692-5.312-3.511-5.197-5.06
		c1.062-14.308-8.747-17.577-19.496-20.129c5.759-9.822,12.348-18.98,21.07-26.44c5.308,7.093,11.736,8.698,19.458,3.974
		c1.493-1.323,2.823-1.174,3.997,0.438c1.172,7.389,0.613,14.374-4.737,20.225C91.319,153.77,90.792,165.296,89.069,176.152z"/>
	<path fill-rule="evenodd" clip-rule="evenodd" fill="#F44A16" d="M18.879,242.894c26.233-4.846,52.832,1.26,79.12-2.542
		c1.094-0.159,2.478,1.686,3.726,2.595c-21.569,6.072-43.631,2.036-65.44,3.154c-6.718,0.342-13.678-1.068-19.786,3.098
		C16.122,246.656,16.851,244.529,18.879,242.894z"/>
	<path fill-rule="evenodd" clip-rule="evenodd" fill="#E72515" d="M435.487,464.729c-33.27,13.799-68.222,19.483-103.93,21.147
		c-62.925,2.937-125.836,4.728-188.437-4.952c-4.178-4.672-2.022-9.024,0.637-13.37c6.25-6.109,7.652-16.407,17.031-19.862
		c47.959-3.011,95.933-1.543,143.915-0.432c9.059,7.721,19.842,8.366,31,7.51c27.845,3.486,55.677-1.562,83.465,0.074
		C425.43,455.215,436.39,451.173,435.487,464.729z"/>
	<path fill-rule="evenodd" clip-rule="evenodd" fill="#E82915" d="M158.945,449.577c-4.169,6.395-4.972,15.034-12.692,19.07
		c-4.63-6.715,1.081-11.853,2.609-17.664c1.343-5.104,7.815-11.629,0.224-15.141c-7.01-3.24-15.835-3.147-21.523,4.533
		c-3.749,5.063-4.565,11.867-9.206,16.503c-5.471,3.616-6.797,10.539-11.627,14.674c-0.666,0.229-1.336,0.456-2.007,0.683
		c-28.133-5.584-51.576-19.138-70.002-41.213c0.059-10.344,7.249-8.87,14.283-9.444c36.771-3.005,73.567,3.157,110.126,0.534
		c44.179-3.169,88.298-0.807,132.417-2.226c8.799-0.282,18.315-1.037,23.841,8.546c-0.349,7.386-5.352,9.829-11.596,10.968
		c-39.966-1.934-79.979-0.232-119.96-1.111C173.171,438.057,166.011,443.12,158.945,449.577z"/>
	<path fill-rule="evenodd" clip-rule="evenodd" fill="#E72715" d="M435.487,464.729c-1.344-6.743-6.705-5.563-11.297-5.588
		c-21.869-0.131-43.689,0.295-65.514,2.434c-8.14,0.798-16.588-1.552-24.896-2.468c-1.777-1.931-2.36-4.24-2.182-6.817
		c0.209-1.686,0.537-3.344,0.926-4.998c0.916-10.039,6.717-14.618,16.481-14.615c9.356,0.003,18.493-1.779,27.676-3.318
		c12.248-0.621,24.492-0.612,36.745-0.221c14.399,2.381,28.897,2.999,43.479,3.2c6.149,0.087,14.075-1.775,16.666,7.309
		C461.561,449.046,450.307,459.595,435.487,464.729z"/>
	<path fill-rule="evenodd" clip-rule="evenodd" fill="#E92B15" d="M314.707,430.494c-5.386-6.547-12.814-6.392-20.313-6.379
		c-37.24,0.062-74.607-1.869-111.678,0.63c-29.585,1.993-58.79,2.999-88.199-0.543c-17.172-2.071-34.207,7.366-51.663,0.62
		c-3.731-1.443-6.463,2.686-8.133,6.2c-3.986-1.99-6.46-5.138-7.319-9.527c1.596-4.57,5.356-6.976,9.647-7.088
		c17.918-0.469,35.571-4.771,53.644-3.16c36.833,3.278,73.779-1.067,110.644,1.276c3.126,0.198,6.303-0.649,9.168-2.195
		c1.701-0.605,3.457-0.875,5.257-0.875c7.015,1.018,14.102,0.854,21.17,1.104c38.936,3.217,77.911,3.443,116.922,1.735
		c5.816,1.813,9.582,5.269,9.414,11.834C348.05,433.574,331.898,435.992,314.707,430.494z"/>
	<path fill-rule="evenodd" clip-rule="evenodd" fill="#E92B15" d="M212.985,411.437c-2.632,5.843-7.733,6.994-13.245,6.286
		c-38.17-4.89-76.477,1.366-114.89-1.94c-18.339-1.576-38.813-1.167-57.448,5.713c-4.353-4.384-7.742-9.308-8.759-15.565
		c-1.871-4.813,1.785-7.805,4.886-7.97c15.584-0.841,31.759-7.429,46.466,3.251c4.306,3.126,8.282,6.447,14.06,4.219
		c2.999-0.997,5.734-2.533,8.461-4.095c12.612-6.917,26.255-2.394,39.067-2.096c22.314,0.516,44.374-1.899,66.545-2.325
		c1.547-0.062,3.081,0.127,4.583,0.506C207.615,400.993,211.302,405.482,212.985,411.437z"/>
	<path fill-rule="evenodd" clip-rule="evenodd" fill="#EA2F15" d="M85.888,408.311c-3.901,4.43-9.477,4.569-12.525,0.912
		c-9.17-10.998-19.564-10.514-32.419-8.167c-7.503,1.372-16.326-4.461-22.302,4.874c-5.787-7.783-8.258-16.779-9.61-26.188
		c0.529,0.325,1.054,0.316,1.572-0.025c8.624-5.243,18.251-4.746,27.474-3.552c22.122,2.869,44.003,1.463,66.164-0.067
		c26.687-1.845,53.52,1.486,80.306,2.008c4.546-0.94,9.094-1.872,13.678-0.198c4.866,3.082,5.279,7.152,2.628,11.896
		c-19.895,6.659-40.69,3.794-60.985,4.57c-14.629,0.562-29.402,0.624-44.09,1.244c-3.851-0.363-7.475-2.2-11.437-1.865
		c-11.623,4.554-3.843,8.611,0.333,12.743C85.091,407.094,85.49,407.702,85.888,408.311z"/>
	<path fill-rule="evenodd" clip-rule="evenodd" fill="#E53D36" d="M114.473,455.938c1.951-3.066,4.4-5.929,5.765-9.238
		c6.058-14.69,19.095-20.834,33.492-15.929c6.08,2.07,4.944,5.733,3.32,9.946c-3.593,9.311-7.198,18.62-10.797,27.931
		c-2.078,3.827-3.773,7.755-3.132,12.277c-13.141-1.388-26.156-3.334-38.398-8.689l0.632-1.272
		C112.269,468.306,110.223,460.213,114.473,455.938z"/>
	<path fill-rule="evenodd" clip-rule="evenodd" fill="#E82A16" d="M473.572,439.646c-7.639-5.526-16.352-2.533-24.487-2.567
		c-12.134-0.057-24.081-0.771-35.907-3.437c0.633-13.269,10.293-17.211,20.869-20.229c14.978-7.447,30.612-4.8,46.126-2.807
		c6.478,0.832,13.061,2.378,9.851,11.723C486.24,429.718,481.709,436.396,473.572,439.646z"/>
	<path fill-rule="evenodd" clip-rule="evenodd" fill="#E92D16" d="M490.023,422.33c-0.814-8.146-6.881-7.152-12.633-7.849
		c-15.302-1.853-30.411-2.66-45.092,3.291c0.827-10.133,10.146-10.62,16.544-13.814c7.807-3.902,15.94-7.463,24.651-9.208
		c9.604,0.228,18.263-10.147,28.524-2.589l0.6,0.481C503.76,404.806,497.475,413.814,490.023,422.33z"/>
	<path fill-rule="evenodd" clip-rule="evenodd" fill="#FC844F" d="M279.684,90.285c-9.872,7.367-19.026,19.194-32.717,6.752
		c-5.507-5.004-10.537-11.135-6.735-19.421c3.837-8.363,8.767-16.211,19.61-15.758c9.337,0.391,16.239,5.06,18.721,14.314
		c1.203,4.485,0.778,9.406,1.089,14.128C279.65,90.301,279.684,90.285,279.684,90.285z"/>
	<path fill-rule="evenodd" clip-rule="evenodd" fill="#EF3D15" d="M7.442,300.188c167.762-0.03,335.526-0.062,503.286-0.093
		c0.349,5.321,0.701,10.639,1.052,15.96c-2.966-1.019-6.196-3.375-8.856-2.847c-29.015,5.746-58.19-1.093-87.421,1.875
		c-30.165,3.058-60.777,0.238-91.186-0.057c-25.392-0.248-51.4-5.323-76.366,4.216c-8.519-0.238-17.562-3.566-24.722,4.216
		c-1.485,0.357-2.78,0.007-3.887-1.036c-2.319-5.005-6.487-6.451-11.669-6.374c-28.244,0.432-56.605-1.66-84.656,2.978
		c-12.255,2.027-23.847-2.26-35.932-2.099c-26.86,0.354-53.737-0.475-80.604-0.822C6.801,310.799,7.122,305.493,7.442,300.188z"/>
	<path fill-rule="evenodd" clip-rule="evenodd" fill="#ED3715" d="M282.905,331.958c19.59-6.001,39.702-2.781,59.563-3.033
		c40.034-0.503,80.081-0.155,120.121-0.14c4.21,0.003,8.489-0.304,12.61,0.336c6.826,1.059,11.994,4.159,11.173,12.38
		c3.263,5.598,0.372,8.646-4.511,10.891c-1.953,0.177-3.859-0.025-5.74-0.55c-8.232-2.381-16.682-2.22-25.119-2.223
		c-48.498,0-96.996,0.047-145.494-0.041c-7.859-0.015-15.86,0.823-23.425-2.381C275.305,341.746,278.954,336.845,282.905,331.958z"
		/>
	<path fill-rule="evenodd" clip-rule="evenodd" fill="#E94636" d="M480.042,351.097c1.051-0.016,2.104-0.028,3.155-0.034
		c5.248,2.055-1.765,10.847,4.949,10.679c6.657-0.17,6.586-6.826,6.744-12.014c0.19-6.221,0.243-12.424,4.195-17.735
		c1.048-0.019,2.096-0.024,3.142-0.021c-0.002,17.989-0.003,35.977-0.006,53.963c-9.05,6.317-19.33,9.316-30.051,11.148
		c-12.95,2.201-25.788-0.568-38.678-0.922c-4.817-0.134-9.04-2.232-11.287-6.998c1.493-12.538,13.707-12.393,21.146-17.899
		C456.778,366.739,468.919,359.848,480.042,351.097z"/>
	<path fill-rule="evenodd" clip-rule="evenodd" fill="#E2401C" d="M282.905,331.958c0.513,4.622-1.003,8.745-3.142,12.713
		c2.021,11.132-12.225,6.249-13.726,13.944c-13.832-1.167-26.858-8.285-41.197-5.454c-6.989-5.156,3.122-10.989-0.625-16.301
		c0.471-1.44,1.442-2.372,2.839-2.899c7.145,1.288,13.712-3.244,20.843-2.074c0.02,2.142,0.039,4.284,0.057,6.426
		c1.636,4.778,5.768,4.607,9.683,4.837c11.731,2.356,14.477-7.1,18.896-14.346C278.656,329.856,280.781,330.905,282.905,331.958z"/>
	<path fill-rule="evenodd" clip-rule="evenodd" fill="#EB4A35" d="M499.086,331.992c0,5.74-0.616,11.558,0.115,17.204
		c2.065,15.941-4.529,21.032-19.783,16.578c0.613-5.092,5.105-9.211,3.779-14.715c1.059-3.186,2.117-6.373,3.175-9.559
		C490.612,338.331,494.849,335.162,499.086,331.992z"/>
	<path fill-rule="evenodd" clip-rule="evenodd" fill="#CC502A" d="M276.532,328.804c3.159,15.709-6.247,18.952-18.861,19.015
		c-3.359-2.365-7.021-4.619-3.46-9.503c-0.332-5.494,4.596-8.288,6.497-12.638c6.289-4.079,10.935,0.174,15.838,3.126H276.532z"/>
	<path fill-rule="evenodd" clip-rule="evenodd" fill="#C9542C" d="M247.897,331.887c-6.738,5.585-13.765,9.183-22.186,3.234
		c-5.695-7.419-2.201-13.357,4.217-17.015c8.352-4.759,13.684,0.906,17.963,7.563C247.893,327.742,247.895,329.816,247.897,331.887z
		"/>
	<path fill-rule="evenodd" clip-rule="evenodd" fill="#E2401C" d="M247.892,325.669c-16.383-10.657-20.72-8.811-22.181,9.452
		l-0.067,0.05c-8.489-2.421-4.819-7.832-3.137-12.753c6.991-13.004,15.868-10.893,25.443-3.176
		C247.932,321.385,247.912,323.526,247.892,325.669z"/>
	<path fill-rule="evenodd" clip-rule="evenodd" fill="#EC3515" d="M254.211,338.315c1.152,3.167,2.303,6.337,3.458,9.503
		c-14.229-3.61-14.229-3.61-9.715-9.506C250.04,338.313,252.125,338.313,254.211,338.315z"/>
	<path fill-rule="evenodd" clip-rule="evenodd" fill="#E2401C" d="M276.545,328.804c-5.28-1.043-10.56-2.086-15.84-3.126
		C267.372,319.695,272.407,321.975,276.545,328.804z"/>
	<path fill-rule="evenodd" clip-rule="evenodd" fill="#EC3515" d="M41.316,363.744c1.063-5.296,2.126-10.596,3.189-15.892
		c3.505-3.884,8.27-4.703,13.029-4.703c42.766-0.024,85.544-1.683,128.276,0.838c5.752,1.698,11.503,4.492,10.973,11.194
		c-0.477,6.02-7.236,4.642-11.343,5.924c-4.539,1.415-8.225,4.522-12.801,5.718c-43.331,2.366-86.66,5.237-130.075,1.577
		C40.737,367.227,40.322,365.672,41.316,363.744z"/>
	<path fill-rule="evenodd" clip-rule="evenodd" fill="#ED3715" d="M190.728,347.85c-48.74,0-97.482,0.003-146.223,0.003
		c-6.227-8.509-3.384-15.366,6.187-15.45c45.892-0.397,91.793,0.316,137.692,0.738c0.789,0.007,1.566,1.301,2.349,1.993
		C193.918,339.374,194.652,343.612,190.728,347.85z"/>
	<path fill-rule="evenodd" clip-rule="evenodd" fill="#E33A1A" d="M190.728,347.85c0.001-4.237,0.003-8.479,0.005-12.716
		c1.059,0,2.119,0,3.177,0.003c4.745,6.693,7.598,15.792,18.564,14.585c2.237,0.859,3.814,2.402,4.782,4.585
		c0.685,4.002-0.881,7.463-2.58,10.899c-8.056,9.946-4.22,22.473-7.239,33.521c-1.333,0.993-2.664,0.987-3.991-0.01l-0.003-0.003
		c-2.757-2.614-5.486-5.237-3.182-9.54c-0.1-3.508,0.552-7.271-3.194-9.559c-4.677-18.257-4.677-18.257-21.438-2.734
		c-4.851-4.11-4.205-8.544-0.795-13.138c4.247-8.714,12.716-6.827,20.542-8.003C193.744,352.972,192.235,350.41,190.728,347.85z"/>
	<path fill-rule="evenodd" clip-rule="evenodd" fill="#CD4E29" d="M212.99,351.034c-14.586,4.17-17.715,1.562-19.08-15.897
		c3.182-7.373,9.76-6.258,15.859-6.342C222.073,338.617,222.672,342.758,212.99,351.034z"/>
	<path fill-rule="evenodd" clip-rule="evenodd" fill="#E93917" d="M212.99,351.034c7.59-8.667,1.287-15.323-3.221-22.239
		c4.611,0.009,9.28,0.103,9.574-6.373c1.055-0.004,2.111-0.004,3.165-0.004c0.433,4.402-1.442,9.372,3.137,12.753
		c4.293,6.336,4.442,11.859-3.118,15.867c0.099,5.327-2.639,5.141-6.265,3.225C215.17,353.189,214.079,352.111,212.99,351.034z"/>
	<path fill-rule="evenodd" clip-rule="evenodd" fill="#ED3715" d="M41.316,363.744c0.006,1.059,0.009,2.117,0.009,3.176
		c-6.903,14.404-19.136,11.505-31.07,9.573c8.531-6,20.801-3.784,27.994-12.73C39.271,363.75,40.293,363.747,41.316,363.744z"/>
	<path fill-rule="evenodd" clip-rule="evenodd" fill="#EB3115" d="M10.255,376.493c11.769,1.392,22.122-1.81,31.07-9.573
		c26.24-1.059,52.436-1.819,78.75-1.53c18.08,0.198,36.484-1.289,54.759-1.646c0.459,4.387-1.508,9.388,3.218,12.693
		c5.433-1.254,9.661-0.708,9.514,6.373c-58.921-4.923-118.071,3.207-176.964-3.098C10.489,378.642,10.371,377.567,10.255,376.493z"
		/>
	<path fill-rule="evenodd" clip-rule="evenodd" fill="#EB381B" d="M473.651,395.529c9.523-3.197,19.048-6.395,28.572-9.596
		c-0.068,2.077-0.137,4.154-0.203,6.228c-10.402-1.899-18.232,7.373-28.39,6.532c-1.029-0.708-1.369-1.413-1.021-2.114
		C472.955,395.881,473.301,395.529,473.651,395.529z"/>
	<path fill-rule="evenodd" clip-rule="evenodd" fill="#F2471A" d="M454.58,281.093c-0.026-4.234-0.053-8.472-0.079-12.706
		c-3.724-5.473-2.544-9.688,3.258-12.725c11.518-1.804,24.043-5.622,25.472,12.744C481.177,286.817,473.285,290.31,454.58,281.093z"
		/>
	<path fill-rule="evenodd" clip-rule="evenodd" fill="#F35F36" d="M197,233.447c-4.219-3.182-8.436-6.367-12.655-9.552
		c-4.012-4.523-15.321-3.169-11.37-14.119c18.994,0.981,37.982,1.192,56.944-0.543c2.074-0.726-0.484-3.551,0.371-1.611
		c0.331,0.748,0.037,1.322-0.858,1.285c-4.781-0.199-11.258,4.976-13.274-4.12c11.75,0.009,23.598-1.037,34.951,3.247
		c1.135,6.33,4.256,12.321,3.221,19.018c-1.057,1.062-2.114,2.124-3.171,3.185c-1.186,1.751-2.479,4.296-4.413,4.25
		C230.164,234.083,213.485,237.892,197,233.447z"/>
	<path fill-rule="evenodd" clip-rule="evenodd" fill="#FA5C16" d="M143.048,128.506c2.324-4.986,6.297-6.858,11.609-6.041
		c38.58,5.929,77.091,1.872,115.714,0.136c24.59-1.105,49.342,1.652,74.03,2.329c15.549,0.425,31.19,1.21,46.654,0.043
		c22.31-1.686,22.257-2.381,22.201,19.421c-31.287-3.548-62.581,1.443-93.864-0.053c-12.938-0.621-25.91-1.108-38.776-2.499
		c-17.342-1.869-19.485-0.211-19.944,18.452c-1.108,1.043-2.215,2.086-3.323,3.129c-1.99-1.77-2.791-4.306-4.202-6.436
		c-6.423-9.698-10.317-9.686-16.765,0.059c-1.413,2.136-2.265,4.641-4.255,6.401c-1.085-1.049-2.17-2.102-3.253-3.151
		c-3.59-11.871-11.486-15.82-23.739-14.898c-13.629,1.024-27.395,0.316-41.097,0.217c-6.681-0.05-12.236,2.642-17.785,5.78
		c-4.635-0.096-5.748-3.545-6.795-7.084C138.723,138.605,138.584,133.026,143.048,128.506z"/>
	<path fill-rule="evenodd" clip-rule="evenodd" fill="#F56536" d="M146.278,195.248c-12.886-8.605-27.182-12.563-42.572-12.669
		c-5.124-0.034-9.247-1.416-11.494-6.398c15.198-5.119,31.241,0.773,46.661-3.809c6.525-1.937,13.521-2.151,19.139-6.674
		c2.604-1.003,5.06-0.897,7.269,0.987l-0.003-0.013c4.377,3.011,8.371,6.532,12.695,9.611c1.074,1.077,2.15,2.151,3.224,3.229
		c2.298,6.072,12.588,9,9.071,16.643c-3.863,8.388-13.715,5.619-21.121,7.28C159.735,205.544,154.13,197.315,146.278,195.248z"/>
	<path fill-rule="evenodd" clip-rule="evenodd" fill="#F46236" d="M146.278,195.248c9.856,1.704,19.008,5.721,29.858,3.638
		c10.234-1.965,18.23-1.717,6.906-13.52c-1.271-1.326-1.262-3.877-1.845-5.858c7.313,2.766,10.058,12.411,19.048,12.65
		c4.358,5.401,6.334,13.805,15.913,12.628c3.986,5.88,11.157,1.04,17.133,5.476c-21.314,4.219-41.322,8.459-61.659,0.907
		c-2.12,1.958-4.214,1.797-6.291-0.068c-4.757-6.616-11.28-10.586-19.041-12.691C146.265,197.355,146.259,196.3,146.278,195.248z"/>
	<path fill-rule="evenodd" clip-rule="evenodd" fill="#F95916" d="M177.972,176.283c-6.347-0.41-9.892-4.52-12.695-9.611
		c5.549-0.503,8.331,4.551,12.739,6.339C178.001,174.104,177.988,175.193,177.972,176.283z"/>
	<path fill-rule="evenodd" clip-rule="evenodd" fill="#F24515" d="M457.759,255.662c-2.188,3.961-3.64,8.109-3.257,12.725
		c-65.075-0.003-130.151-0.276-195.222,0.217c-13.121,0.1-26.544-4.364-39.639,2.53c-4.606,2.425-10.414-0.065-13.015-5.929
		c1.074-0.007,2.148-0.016,3.221-0.025c5.94-5.467,14.344-4.806,21-8.506c8.209-7.637,17.78-9.754,28.937-9.167
		c33.002,1.745,66.054-1.354,99.081,0.425c6.76,0.363,13.771-0.509,19.414,4.554c1.062,1.062,2.124,2.124,3.187,3.188
		c4.167,7.575,11.271,8.816,17.162,4.402C417.686,245.784,437.762,252.843,457.759,255.662z"/>
	<path fill-rule="evenodd" clip-rule="evenodd" fill="#F34915" d="M378.28,252.486c-42.245-0.4-84.495-0.497-126.729-1.434
		c-9.493-0.211-13.289,6.876-19.513,10.955c-2.22-15.745,1.052-20.327,15.885-22.249c7.666-7.764,17.241-6.622,26.984-6.488
		c28.537,0.394,57.082,0.14,85.622,0.14C382.093,233.41,382.093,233.413,378.28,252.486z"/>
	<path fill-rule="evenodd" clip-rule="evenodd" fill="#F25C37" d="M247.923,239.758c-11.272,3.151-14.064,12.353-15.885,22.249
		c-7.277,1.897-14.496,4.203-22.19,3.173c-3.193-5.293-6.388-10.586-9.58-15.876c-1.088-5.287-2.178-10.57-3.266-15.857
		c17.732-6.429,36.189-0.692,54.156-3.21C250.079,233.41,249.002,236.582,247.923,239.758z"/>
	<path fill-rule="evenodd" clip-rule="evenodd" fill="#F47050" d="M400.483,246.246c-0.959,10.313-8.499,9.577-15.725,9.369
		C385.69,238.541,386.962,237.784,400.483,246.246z"/>
	<path fill-rule="evenodd" clip-rule="evenodd" fill="#F95916" d="M165.28,166.684c-2.112-0.003-4.225-0.009-6.337-0.013
		c-10.066-0.636-15.469-5.007-12.72-15.897c-0.781-9.378,5.304-9.679,12.203-9.608c17.316,0.177,34.721,1.118,51.93-0.258
		c15.66-1.251,22.54,3.157,18.518,19.39c-16.512-0.816-33.027-1.571-49.535-2.478C172.446,157.442,166.872,158.817,165.28,166.684z"
		/>
	<path fill-rule="evenodd" clip-rule="evenodd" fill="#F97747" d="M232.126,163.449c-0.543-9.856,1.435-19.036,13.411-18.524
		c10.839,0.462,12.529,9.313,11.813,18.499C248.948,169.847,240.539,169.77,232.126,163.449z"/>
	<path fill-rule="evenodd" clip-rule="evenodd" fill="#FB5F16" d="M143.048,128.506c-0.001,5.305-0.004,10.607-0.008,15.913
		c-1.304,0.975-2.631,1.055-3.989,0.121c-4.5-16.633-16.166-19.424-31.026-16.047l-1.56,0.006l-1.56-0.003
		C116.668,114.946,125.311,114.946,143.048,128.506z"/>
	<path fill-rule="evenodd" clip-rule="evenodd" fill="#F45320" d="M165.34,211.102c2.097,0.021,4.194,0.046,6.291,0.068
		c4.238,4.244,8.477,8.484,12.714,12.725c-3.168-0.012-6.336-0.025-9.504-0.04c-2.075-4.278-5.251-7.454-9.535-9.521
		C165.317,213.256,165.329,212.179,165.34,211.102z"/>
	<path fill-rule="evenodd" clip-rule="evenodd" fill="#F66937" d="M139.883,144.37c1.053,0.022,2.105,0.037,3.157,0.05
		c0.056,2.62,0.64,4.976,3.182,6.354c0.796,8.053,6.868,11.887,12.72,15.897c-0.477,6.438-4.13,9.264-10.396,9.497
		c-18.78,0.692-37.552,6.668-56.334,0.012c-1.047,0-2.097-0.009-3.145-0.025c-5.2-13.699-3.662-24.413,12.655-28.582
		C114.818,150.994,127.65,151.252,139.883,144.37z"/>
	<path fill-rule="evenodd" clip-rule="evenodd" fill="#F86C37" d="M139.883,144.37c-8.816,12.216-25.683,13.631-38.161,3.204
		c5.703-5.169,1.49-13.616,6.302-19.08C126.688,116.647,138.158,122.363,139.883,144.37z"/>
	<path fill-rule="evenodd" clip-rule="evenodd" fill="#E82915" d="M158.945,449.577c1.2-11.939,6.856-16.568,19.694-16.229
		c35.995,0.952,72.033,0.354,108.052,0.31c6.369-0.006,12.75-0.359,18.479,3.201c3.532,4.24,3.787,8.478-0.003,12.719
		c-37.898,1.071-75.813,3.014-113.685-0.112C180.575,448.564,169.786,454.886,158.945,449.577z"/>
	<path fill-rule="evenodd" clip-rule="evenodd" fill="#E82A16" d="M305.168,449.577c0.001-4.241,0.003-8.479,0.003-12.719
		c3.179-2.12,6.357-4.24,9.536-6.364c15.895-2.117,31.791-4.234,47.687-6.352c5.321-4.035,8.023,0.603,11.302,3.387
		c1.417,1.804,2.58,3.686,1.502,6.106c-5.531,1.071-11.2,3.489-16.57,2.949c-13.093-1.319-22.622,1.394-24.979,16.071
		c-3.449-2.825-3.284-7.721-6.165-10.84c-2.354-2.552-5.25-3.362-8.529-1.909c-2.07,0.915-3.365,2.555-3.382,4.861
		c-0.028,3.815,2.474,5.507,5.766,6.376c4.045,1.071,8.458-0.838,12.353,1.503c0.029,2.154,0.061,4.309,0.09,6.46
		C323.437,458.354,311.357,462.805,305.168,449.577z"/>
	<path fill-rule="evenodd" clip-rule="evenodd" fill="#E72918" d="M114.473,455.938c-0.821,6.361,0.289,13.89-9.121,15.031
		C108.65,466.111,107.293,458.434,114.473,455.938z"/>
	<path fill-rule="evenodd" clip-rule="evenodd" fill="#E74336" d="M375.198,433.636c-1.075-1.049-2.152-2.096-3.229-3.145
		c-2.066-9.416-14.003-11.337-15.897-20.911c-1.276-12.414,5.043-22.38,16.211-22.681c16.782-0.456,33.665-1.428,50.512-0.891
		c2.025,4.24,5.436,6.677,10.081,6.246c13.807-1.285,27.191,2.142,40.776,3.274c-0.01,1.056-0.016,2.111-0.021,3.164
		c-14.365,5.088-29.148,9.27-41.332,19.079c-9.501,1.524-13.889,9.204-19.121,15.87
		C400.517,433.639,387.858,433.639,375.198,433.636z"/>
	<path fill-rule="evenodd" clip-rule="evenodd" fill="#E92B15" d="M356.033,414.606c-31.909,6.227-64.115,3.482-96.098,1.754
		c-8.07-0.438-16.71,1.431-24.699-1.754c-2.085-4.548,0.073-7.802,3.275-10.754c1.534-0.742,3.149-1.127,4.849-1.204
		c37.037-1.332,74.035,2.781,111.084,0.738c2.857,1.267,3.093,3.8,3.103,6.441C357.706,411.632,357.201,413.225,356.033,414.606z"/>
	<path fill-rule="evenodd" clip-rule="evenodd" fill="#E92E15" d="M356.033,414.606c0.001-1.063,0.003-2.121,0.004-3.183
		c1.05-1.475,2.101-1.403,3.149,0c2.223,7.721,14.63,8.618,12.781,19.067c-3.337-1.896-4.634-6.87-9.574-6.349
		C360.274,420.964,358.154,417.785,356.033,414.606z"/>
	<path fill-rule="evenodd" clip-rule="evenodd" fill="#E92E15" d="M238.367,405.011c-1.044,3.197-2.087,6.397-3.13,9.596
		c-6.378-1.006-13.502,2.536-19.117-3.133c0.495-0.537,0.99-1.074,1.479-1.623C224.458,407.976,230.825,403.968,238.367,405.011z"/>
	<path fill-rule="evenodd" clip-rule="evenodd" fill="#EA2F15" d="M203.447,398.718c1.049,0,2.097,0,3.146,0
		c5.986,2.117,10.792,5.125,9.591,12.679c0,0-0.062,0.074-0.063,0.077c-1.045-0.028-2.089-0.04-3.136-0.037
		C207.897,408.63,203.69,405.159,203.447,398.718z"/>
	<path fill-rule="evenodd" clip-rule="evenodd" fill="#EA2F15" d="M200.261,389.175c1.06,3.179,2.122,6.361,3.182,9.54
		c-22.193,4.973-44.694,4.566-67.274,4.973c-14.62,0.265-29.574-5.438-43.977,1.385c-3.717-4.237-3.717-8.478-0.003-12.719
		C128.117,387.961,164.217,389.517,200.261,389.175z"/>
	<path fill-rule="evenodd" clip-rule="evenodd" fill="#EB3115" d="M92.19,392.354c0.001,4.241,0.003,8.481,0.003,12.719
		c-1.352,2.54-3.716,3.111-6.305,3.238l-0.087-0.108c-1.4-6.274-2.952-12.526-3.233-18.993
		C86.094,389.28,89.866,388.604,92.19,392.354z"/>
	<path fill-rule="evenodd" clip-rule="evenodd" fill="#CF4827" d="M187.566,382.811c-3.171-2.126-6.344-4.249-9.515-6.373
		c0.188-6.063-1.363-13.082,6.845-15.332c3.978-1.09,8.445-1.429,11.84,1.599c6.01,5.361,3.092,11.21,0.331,16.912
		C193.899,380.682,190.733,381.746,187.566,382.811z"/>
	<path fill-rule="evenodd" clip-rule="evenodd" fill="#EC5243" d="M82.568,389.209c7.649,5.213,7.986,11.67,3.233,18.993
		c-6.253,0.14-11.924-0.792-12.456-8.64C72.913,393.198,76.235,389.759,82.568,389.209z"/>
	<path fill-rule="evenodd" clip-rule="evenodd" fill="#EC3515" d="M267.018,357.396c-1.025-3.018-2.474-6.293,2.872-6.352
		c4.68-0.053,7.961-2.111,9.872-6.373c61.644,0,123.285-0.081,184.928,0.137c5.575,0.021,13.391-3.394,15.353,6.289
		c-6.331,15.811-21.408,17.835-34.997,22.202c-3.213-5.936-8.729-7.044-14.791-7.143c-41.132-0.684-82.268-2.201-123.397-0.842
		c-19.01,0.631-21.045,3.039-23.378,20.25c-0.9,3.409-2.016,6.649-6.096,7.444c-3.379-1.865-4.04-5.188-4.62-8.553
		C274.383,374.699,265.823,367.075,267.018,357.396z"/>
	<path fill-rule="evenodd" clip-rule="evenodd" fill="#EB3215" d="M279.771,385.999c-0.04-22.981-0.059-24.708,22.938-24.946
		c35.185-0.373,70.434-2.611,105.668,1.304c9.938,1.102,20.374-1.227,30.691-0.698c3.602,0.183,7.604-1.795,9.821,2.12
		c2.389,4.212-3.263,6.02-3.845,9.521c-6.219,6.336-14.983,8.215-22.252,12.71c-14.219,5.889-28.286,8-43.868,3.793
		c-11.602-3.132-18.461,5.682-19.738,21.622h-1.573h-1.576c-0.001-2.117-0.003-4.237-0.004-6.354
		c-3.651-5.544-2.479-9.859,2.964-12.942c-19.608-2.194-39.641-1.176-59.645-1.468C292.502,390.557,285.463,391.057,279.771,385.999
		z"/>
	<path fill-rule="evenodd" clip-rule="evenodd" fill="#C74E2C" d="M267.018,357.396c5.343,7.665,11.189,15.137,9.593,25.422
		c-20.141,9.76-41.482,5.907-61.634,2.405c-12.959-2.25-6.266-13.687-2.02-21.541c1.101-3.139,2.201-6.28,3.303-9.419
		c2.595-0.093,4.911-0.723,6.266-3.225C238.434,345.62,252.854,350.609,267.018,357.396z"/>
	<path fill-rule="evenodd" clip-rule="evenodd" fill="#C74B2B" d="M212.957,363.682c-4.846,19.086-4.846,19.102,14.961,19.129
		c16.23,0.025,32.461,0.007,48.692,0.007c-0.013,3.176-0.024,6.352-0.036,9.527c-4.385,8.742-12.225,7.597-18.911,5.072
		c-9.466-3.576-14.746,0.354-19.319,7.603c0,0,0.023-0.006,0.023-0.009c-6.281,5.997-13.906,7.326-22.184,6.386
		c-3.198-4.226-6.394-8.45-9.591-12.679C205.041,386.372,200.822,373.541,212.957,363.682z"/>
	<path fill-rule="evenodd" clip-rule="evenodd" fill="#F36A4B" d="M479.921,268.3c-0.452,6.836-4.263,11.582-11.394,12.448
		c-7.107,0.86-10.672-3.213-10.805-10.307c-0.124-6.752,2.464-11.188,9.826-11.582C474.088,258.509,479.005,260.377,479.921,268.3z"
		/>
	<path fill-rule="evenodd" clip-rule="evenodd" fill="#EA5249" d="M333.691,452.647c-2.918,1.102-5.759,2.794-8.77,3.185
		c-7.552,0.981-14.431-1.44-15.19-9.62c-0.518-5.591,2.93-11.716,9.853-12.169c8.203-0.541,14.519,2.396,14.178,12.33
		c-0.073,2.096-0.075,4.191-0.11,6.286C333.649,452.656,333.691,452.647,333.691,452.647z"/>
	<path fill-rule="evenodd" clip-rule="evenodd" fill="#E92E15" d="M238.344,405.02c-0.4-12.743,4.279-18.542,17.155-12.026
		c7.308,3.697,14.162,3.235,21.075-0.646c2.556-1.369,3.102-3.744,3.196-6.349c19.813-0.003,39.626-0.021,59.438,0.003
		c20.496,0.022,20.496,0.037,16.824,19.067c-26.358,6.283-53.065,3.902-79.36,1.046C263.74,404.713,250.782,412.843,238.344,405.02z
		"/>
</g>
<g>
	<g>
		<g>
			<path fill="#F8F6F6" d="M372.268,175.118c2.793,0,5.056,2.264,5.056,5.055v18.217H134.677v-18.217
				c0-2.792,2.264-5.055,5.054-5.055H372.268z"/>
			<path fill="#C3C3C7" d="M372.268,175.118h-14.036c2.792,0,5.055,2.264,5.055,5.055v18.217h14.037v-18.217
				C377.323,177.381,375.06,175.118,372.268,175.118z"/>
		</g>
		<path fill="#B1E39D" d="M382.377,387.434c8.376,0,15.166-6.79,15.166-15.166c0-5.98-3.462-11.151-8.492-13.619
			c-2.143-1.053-3.156-3.555-2.469-5.842c0.537-1.789,0.834-3.682,0.85-5.643c0.094-11.216-9.412-20.392-20.628-20.392h-9.701
			H154.898h-9.702c-11.215,0-20.721,9.176-20.628,20.392c0.017,1.961,0.313,3.854,0.85,5.643c0.687,2.287-0.325,4.79-2.469,5.842
			c-5.028,2.469-8.492,7.64-8.492,13.619c0,8.376,6.79,15.166,15.166,15.166v6.185h252.399L382.377,387.434z"/>
		<path fill="#94D4A2" d="M389.052,358.647c-2.143-1.054-3.156-3.555-2.469-5.841c0.537-1.789,0.834-3.683,0.85-5.644
			c0.094-11.215-9.412-20.392-20.628-20.392h-9.701h-4.336c11.216,0,20.722,9.177,20.628,20.392
			c-0.015,1.961-0.313,3.854-0.85,5.644c-0.687,2.286,0.326,4.789,2.47,5.841c5.029,2.469,8.492,7.64,8.492,13.62
			c0,8.376-6.79,15.166-15.166,15.166l-0.356,6.185h14.037l0.354-6.185c8.376,0,15.166-6.79,15.166-15.166
			C397.543,366.288,394.081,361.116,389.052,358.647z"/>
		<path fill="#F4832F" d="M154.898,195.339h202.205v195.939H154.898V195.339z"/>
		<path fill="#AA5C27" d="M343.066,195.339h14.036v195.939h-14.036V195.339z"/>
		<g>
			<g>
				<path fill="#EFD9C5" d="M154.898,326.771h202.205v64.507H154.898V326.771z"/>
				<path fill="#CCB9AA" d="M343.066,326.771h14.036v64.507h-14.036V326.771z"/>
				<path fill="#5B5650" d="M256,387.434h-80.882V250.772c0-2.696,2.186-4.882,4.882-4.882h71.118c2.696,0,4.882,2.186,4.882,4.882
					V387.434z"/>
				<path fill="#3A3733" d="M251.118,245.89h-14.037c2.696,0,4.882,2.186,4.882,4.882v136.662H256V250.772
					C256,248.076,253.815,245.89,251.118,245.89z"/>
			</g>
			<path fill="#F8F6F6" d="M230.898,296.442h-30.677c-2.696,0-4.882-2.187-4.882-4.883v-10.456c0-2.697,2.187-4.883,4.882-4.883
				h30.678c2.696,0,4.882,2.186,4.882,4.883v10.456C235.781,294.256,233.594,296.442,230.898,296.442z"/>
			<path fill="#EFD9C5" d="M331.999,306.552h-50.896c-2.696,0-4.882-2.187-4.882-4.883v-50.897c0-2.696,2.186-4.882,4.882-4.882
				h50.896c2.695,0,4.882,2.186,4.882,4.882v50.897C336.881,304.365,334.696,306.552,331.999,306.552z"/>
			<path fill="#ECE6E3" d="M230.898,276.221h-14.037c2.696,0,4.882,2.186,4.882,4.882v10.456c0,2.695-2.186,4.882-4.882,4.882
				h14.037c2.696,0,4.882-2.187,4.882-4.882v-10.456C235.781,278.406,233.594,276.221,230.898,276.221z"/>
		</g>
		<path fill="#F4832F" d="M307.243,195.339H204.758c-10.787,0-19.529-8.744-19.529-19.529v-51.934
			c0-10.786,8.742-19.529,19.529-19.529h102.486c10.785,0,19.528,8.743,19.528,19.529v51.934
			C326.772,186.595,318.029,195.339,307.243,195.339z"/>
		<g>
			<path fill="#2273F4" d="M175.118,205.449c0,11.167-9.053,20.22-20.22,20.22c-11.167,0-20.22-9.053-20.22-20.22v-10.11h40.441
				L175.118,205.449L175.118,205.449z"/>
			<path fill="#DE5964" d="M215.559,205.449c0,11.167-9.053,20.22-20.22,20.22s-20.22-9.053-20.22-20.22v-10.11h40.441
				L215.559,205.449L215.559,205.449z"/>
			<path fill="#2273F4" d="M256,205.449c0,11.167-9.053,20.22-20.22,20.22c-11.168,0-20.222-9.053-20.222-20.22v-10.11H256V205.449z
				"/>
			<path fill="#DE5964" d="M296.442,205.449c0,11.167-9.053,20.22-20.221,20.22c-11.167,0-20.221-9.053-20.221-20.22v-10.11h40.441
				V205.449L296.442,205.449z"/>
			<path fill="#2273F4" d="M336.881,205.449c0,11.167-9.054,20.22-20.22,20.22c-11.168,0-20.221-9.053-20.221-20.22v-10.11h40.44
				V205.449L336.881,205.449z"/>
			<path fill="#DE5964" d="M377.323,205.449c0,11.167-9.053,20.22-20.222,20.22c-11.167,0-20.221-9.053-20.221-20.22v-10.11h40.442
				V205.449z"/>
			<path fill="#D14A54" d="M363.286,195.339v10.11c0,8.699-5.494,16.115-13.203,18.968c2.188,0.81,4.551,1.253,7.019,1.253
				c11.169,0,20.222-9.053,20.222-20.221v-10.111H363.286z"/>
			<path fill="#1E5DBA" d="M322.845,195.339v10.11c0,8.699-5.495,16.115-13.202,18.968c2.187,0.81,4.55,1.253,7.019,1.253
				c11.166,0,20.22-9.053,20.22-20.221v-10.111H322.845z"/>
			<path fill="#D14A54" d="M282.405,195.339v10.11c0,8.699-5.494,16.115-13.201,18.968c2.188,0.81,4.549,1.253,7.018,1.253
				c11.168,0,20.221-9.053,20.221-20.221v-10.111H282.405z"/>
			<path fill="#1E5DBA" d="M241.964,195.339v10.11c0,8.699-5.494,16.115-13.202,18.968c2.187,0.81,4.549,1.253,7.019,1.253
				c11.167,0,20.22-9.053,20.22-20.221v-10.111H241.964z"/>
			<path fill="#D14A54" d="M201.523,195.339v10.11c0,8.699-5.494,16.115-13.202,18.968c2.187,0.81,4.55,1.253,7.018,1.253
				c11.167,0,20.22-9.053,20.22-20.221v-10.111H201.523z"/>
			<path fill="#1E5DBA" d="M161.082,195.339v10.11c0,8.699-5.494,16.115-13.202,18.968c2.187,0.81,4.55,1.253,7.019,1.253
				c11.167,0,20.22-9.053,20.22-20.221v-10.111H161.082z"/>
		</g>
		<path fill="#AA5C27" d="M307.243,104.347h-14.036c10.785,0,19.528,8.743,19.528,19.529v51.934
			c0,10.786-8.743,19.529-19.528,19.529h14.036c10.785,0,19.528-8.744,19.528-19.529v-51.934
			C326.772,113.09,318.029,104.347,307.243,104.347z"/>
		<path fill="#F8F6F6" d="M306.433,137.804c-0.851-6.882-6.432-12.382-13.323-13.142c-7.826-0.862-14.623,4.236-16.424,11.327
			c-0.563,2.216-2.59,3.743-4.877,3.743c-7.776,0-23.839,0-31.618,0c-2.286,0-4.315-1.526-4.877-3.743
			c-1.8-7.091-8.597-12.189-16.422-11.327c-6.893,0.759-12.474,6.26-13.324,13.142c-0.437,3.542,0.35,6.879,1.995,9.649
			c0.868,1.464,0.868,3.314,0,4.778c-1.644,2.77-2.431,6.108-1.995,9.649c0.851,6.882,6.432,12.383,13.324,13.143
			c7.825,0.862,14.622-4.236,16.422-11.327c0.563-2.216,2.591-3.743,4.877-3.743h31.618c2.285,0,4.314,1.528,4.877,3.743
			c1.801,7.091,8.598,12.189,16.424,11.327c6.892-0.76,12.473-6.261,13.323-13.143c0.437-3.541-0.35-6.879-1.994-9.649
			c-0.868-1.464-0.868-3.314,0-4.778C306.083,144.684,306.869,141.347,306.433,137.804z"/>
		<g>
			<path fill="#ECE6E3" d="M221.278,135.989c0.563,2.216,2.591,3.743,4.878,3.743h14.036c-2.286,0-4.315-1.526-4.877-3.743
				c-1.801-7.091-8.597-12.189-16.422-11.327c-1.885,0.207-3.666,0.78-5.284,1.629C217.374,128.264,220.208,131.775,221.278,135.989
				z"/>
			<path fill="#ECE6E3" d="M304.439,147.453c1.643-2.77,2.43-6.107,1.994-9.649c-0.851-6.882-6.432-12.382-13.323-13.142
				c-3.175-0.35-6.181,0.281-8.753,1.629c4.301,2.253,7.422,6.514,8.039,11.513c0.438,3.542-0.35,6.879-1.994,9.649
				c-0.867,1.464-0.867,3.314,0,4.778c1.645,2.77,2.431,6.108,1.994,9.649c-0.617,5-3.738,9.26-8.039,11.514
				c2.572,1.348,5.578,1.979,8.753,1.629c6.892-0.76,12.473-6.261,13.323-13.143c0.437-3.541-0.35-6.879-1.994-9.649
				C303.571,150.768,303.571,148.917,304.439,147.453z"/>
			<path fill="#ECE6E3" d="M221.278,163.696c-1.069,4.214-3.903,7.725-7.669,9.698c1.618,0.849,3.398,1.421,5.284,1.629
				c7.826,0.862,14.622-4.236,16.422-11.327c0.563-2.216,2.591-3.743,4.877-3.743c-5.35,0-10.533,0-14.036,0
				C223.868,159.953,221.84,161.48,221.278,163.696z"/>
		</g>
		<path fill="#CCB9AA" d="M331.999,245.89h-14.036c2.695,0,4.882,2.186,4.882,4.882v50.897c0,2.696-2.187,4.883-4.882,4.883h14.036
			c2.695,0,4.882-2.187,4.882-4.883v-50.897C336.881,248.076,334.696,245.89,331.999,245.89z"/>
		<g>
			<path fill="#716E6E" d="M336.881,391.278H296.44v-29.293c0-2.696,2.187-4.883,4.883-4.883h30.677
				c2.695,0,4.882,2.187,4.882,4.883V391.278z"/>
			<path fill="#585555" d="M331.999,357.103h-14.036c2.695,0,4.882,2.187,4.882,4.883v29.293h14.036v-29.293
				C336.881,359.289,334.696,357.103,331.999,357.103z"/>
		</g>
		<g>
			<path fill="#F8F6F6" d="M402.773,407.654H109.229c-2.696,0-4.882-2.187-4.882-4.882v-10.456c0-2.697,2.186-4.883,4.882-4.883
				h293.543c2.695,0,4.882,2.186,4.882,4.883v10.456C407.655,405.468,405.468,407.654,402.773,407.654z"/>
			<path fill="#ECE6E3" d="M402.773,387.434h-14.037c2.695,0,4.883,2.186,4.883,4.883v10.456c0,2.695-2.188,4.882-4.883,4.882
				h14.037c2.695,0,4.882-2.187,4.882-4.882v-10.456C407.655,389.619,405.468,387.434,402.773,387.434z"/>
		</g>
	</g>
	<g>
		<path d="M402.773,382.856h-3.746c1.955-3.063,3.094-6.693,3.094-10.589c0-7.716-4.569-14.602-11.259-17.816
			c0.757-2.403,1.147-4.918,1.147-7.459c0-13.674-11.123-24.798-24.797-24.798h-5.532v-92.379
			c11.491-2.154,20.22-12.257,20.22-24.366v-25.276c0-5.311-4.321-9.632-9.632-9.632h-40.919v-46.666
			c0-13.292-10.815-24.106-24.105-24.106H204.758c-13.292,0-24.106,10.814-24.106,24.106v46.666h-10.416
			c-2.527,0-4.577,2.049-4.577,4.577c0,2.528,2.049,4.577,4.577,4.577h10.733c0.674,4.135,2.403,7.917,4.9,11.066h-46.615v-10.588
			c0-0.264,0.215-0.478,0.477-0.478h12.196c2.528,0,4.577-2.049,4.577-4.577c0-2.528-2.049-4.577-4.577-4.577h-12.195
			c-5.311,0-9.631,4.321-9.631,9.632v25.276c0,12.109,8.727,22.212,20.22,24.366v92.379h-5.534
			c-13.673,0-24.797,11.124-24.797,24.798c0,2.541,0.39,5.057,1.148,7.46c-6.69,3.216-11.258,10.102-11.258,17.815
			c0,3.896,1.138,7.525,3.093,10.59h-3.744c-5.216,0-9.459,4.243-9.459,9.459v10.456c0,5.216,4.244,9.458,9.459,9.458H306.55
			c2.528,0,4.578-2.048,4.578-4.576c0-2.529-2.05-4.577-4.578-4.577H109.229c-0.169,0-0.305-0.138-0.305-0.305v-10.456
			c0-0.169,0.136-0.306,0.305-0.306h293.543c0.167,0,0.305,0.137,0.305,0.306v10.456c0,0.167-0.138,0.305-0.305,0.305h-77.914
			c-2.528,0-4.577,2.048-4.577,4.577c0,2.528,2.049,4.576,4.577,4.576h77.914c5.216,0,9.458-4.242,9.458-9.458v-10.456
			C412.231,387.101,407.989,382.856,402.773,382.856z M382.856,346.992c0,2.799-0.75,5.548-2.17,7.947
			c-0.776,1.312-0.849,2.924-0.193,4.299c0.656,1.376,1.952,2.335,3.46,2.559c5.14,0.764,9.015,5.266,9.015,10.471
			c0,5.838-4.75,10.589-10.589,10.589h-20.699v-51.508h5.533C375.838,331.349,382.856,338.366,382.856,346.992L382.856,346.992z
			 M251.118,241.313h-71.118c-5.216,0-9.459,4.243-9.459,9.459v71.423h-11.066v-92.38c6.43-1.205,11.99-4.897,15.643-10.039
			c4.498,6.329,11.882,10.469,20.22,10.469s15.723-4.141,20.22-10.469c4.498,6.329,11.883,10.469,20.222,10.469
			c8.337,0,15.723-4.141,20.22-10.469c4.498,6.329,11.882,10.469,20.221,10.469c8.338,0,15.722-4.141,20.22-10.469
			c4.498,6.329,11.883,10.469,20.221,10.469s15.722-4.141,20.22-10.469c3.654,5.142,9.215,8.834,15.643,10.039v92.379h-91.946
			v-71.422C260.577,245.557,256.334,241.313,251.118,241.313L251.118,241.313z M179.696,199.916h31.287v5.533
			c0,8.625-7.018,15.643-15.643,15.643s-15.643-7.018-15.643-15.643L179.696,199.916L179.696,199.916z M251.424,199.916v5.533
			c0,8.625-7.018,15.643-15.643,15.643c-8.627,0-15.645-7.018-15.645-15.643v-5.533H251.424z M291.865,199.916v5.533
			c0,8.625-7.018,15.643-15.644,15.643c-8.625,0-15.644-7.018-15.644-15.643v-5.533H291.865z M332.304,199.916v5.533
			c0,8.625-7.018,15.643-15.643,15.643c-8.626,0-15.644-7.018-15.644-15.643v-5.533H332.304z M372.746,205.449
			c0,8.625-7.018,15.643-15.645,15.643c-8.626,0-15.644-7.018-15.644-15.643v-5.533h31.288V205.449z M372.746,180.173v10.588H326.13
			c2.498-3.149,4.228-6.931,4.9-11.066h41.237C372.531,179.695,372.746,179.91,372.746,180.173z M189.806,175.81v-51.934
			c0-8.245,6.707-14.952,14.952-14.952h102.486c8.244,0,14.951,6.707,14.951,14.952v51.934c0,8.245-6.707,14.952-14.951,14.952
			H204.758C196.513,190.762,189.806,184.054,189.806,175.81L189.806,175.81z M139.255,205.449v-5.533h31.287v5.533
			c0,8.625-7.018,15.643-15.643,15.643C146.273,221.092,139.255,214.075,139.255,205.449z M119.034,372.268
			c0-5.204,3.876-9.706,9.014-10.469c1.507-0.225,2.804-1.185,3.46-2.56c0.655-1.376,0.583-2.987-0.193-4.298
			c-1.42-2.401-2.17-5.15-2.17-7.946c0-8.627,7.018-15.645,15.643-15.645h5.534v51.508h-20.699
			C123.784,382.856,119.034,378.106,119.034,372.268L119.034,372.268z M159.475,331.349h11.066v51.508h-11.066V331.349z
			 M179.696,382.856V250.772c0-0.167,0.137-0.305,0.305-0.305h71.118c0.167,0,0.305,0.137,0.305,0.305v132.085L179.696,382.856
			L179.696,382.856z M301.019,382.856v-20.871c0-0.168,0.136-0.306,0.306-0.306h30.675c0.17,0,0.306,0.138,0.306,0.306v20.871
			H301.019z M341.458,382.856v-20.871c0-5.216-4.243-9.46-9.459-9.46h-30.677c-5.216,0-9.459,4.244-9.459,9.46v20.871h-31.286
			v-51.508h91.948v51.508H341.458z"/>
		<path d="M240.358,291.56v-10.457c0-5.216-4.244-9.459-9.459-9.459h-30.677c-5.216,0-9.459,4.243-9.459,9.459v10.457
			c0,5.216,4.244,9.46,9.459,9.46h30.678C236.114,301.02,240.358,296.775,240.358,291.56z M231.203,291.56
			c0,0.167-0.138,0.306-0.305,0.306h-30.677c-0.167,0-0.305-0.139-0.305-0.306v-10.457c0-0.169,0.138-0.305,0.305-0.305h30.678
			c0.167,0,0.305,0.136,0.305,0.305L231.203,291.56L231.203,291.56z"/>
		<path d="M240.835,322.195h-5.054c-2.529,0-4.577,2.048-4.577,4.576c0,2.529,2.048,4.577,4.577,4.577h5.054
			c2.529,0,4.577-2.048,4.577-4.577C245.412,324.243,243.363,322.195,240.835,322.195z"/>
		<path d="M281.103,311.129h50.896c5.216,0,9.459-4.244,9.459-9.46v-50.896c0-5.216-4.243-9.459-9.459-9.459h-50.896
			c-5.216,0-9.46,4.243-9.46,9.459v50.896C271.643,306.885,275.887,311.129,281.103,311.129z M280.797,250.772
			c0-0.167,0.137-0.305,0.306-0.305h50.896c0.168,0,0.305,0.137,0.305,0.305v50.896c0,0.167-0.137,0.306-0.305,0.306h-50.896
			c-0.169,0-0.306-0.139-0.306-0.306V250.772z"/>
		<path d="M316.662,365.163c-2.529,0-4.578,2.049-4.578,4.577v5.056c0,2.528,2.049,4.577,4.578,4.577
			c2.526,0,4.576-2.049,4.576-4.577v-5.056C321.239,367.212,319.189,365.163,316.662,365.163z"/>
		<path d="M239.751,164.823c0.041-0.167,0.232-0.292,0.443-0.292h31.613c0.212,0,0.402,0.126,0.443,0.292
			c2.229,8.783,10.266,14.869,19.199,14.869c0.716,0,1.438-0.039,2.162-0.118c8.958-0.987,16.261-8.192,17.363-17.131
			c0.547-4.424-0.403-8.852-2.634-12.599c2.23-3.747,3.181-8.175,2.634-12.598c0,0,0,0,0-0.001
			c-1.103-8.939-8.405-16.144-17.363-17.131c-9.767-1.076-18.953,5.265-21.361,14.75c-0.041,0.167-0.232,0.292-0.443,0.292h-31.613
			c-0.21,0-0.4-0.126-0.443-0.292c-2.408-9.486-11.597-15.827-21.36-14.75c-8.96,0.987-16.262,8.191-17.365,17.132
			c-0.547,4.424,0.403,8.851,2.634,12.598c-2.23,3.748-3.181,8.175-2.634,12.6c1.103,8.938,8.405,16.144,17.365,17.131
			C228.159,180.653,237.344,174.308,239.751,164.823L239.751,164.823z M210.111,161.321c-0.385-3.121,0.543-6.113,2.614-8.426
			c1.556-1.738,1.555-4.368-0.001-6.105c-2.071-2.312-2.998-5.304-2.613-8.424c0.589-4.777,4.494-8.626,9.282-9.154
			c5.345-0.587,10.172,2.736,11.485,7.903c1.075,4.236,4.906,7.194,9.316,7.194h31.613c4.41,0,8.24-2.958,9.316-7.194
			c1.312-5.168,6.141-8.493,11.483-7.903c4.79,0.527,8.694,4.377,9.283,9.153c0.385,3.121-0.543,6.113-2.613,8.425
			c-1.556,1.738-1.556,4.368,0,6.105c2.071,2.313,2.998,5.305,2.613,8.426c-0.589,4.776-4.494,8.625-9.283,9.153
			c-5.341,0.592-10.172-2.734-11.483-7.904c-1.076-4.235-4.906-7.193-9.316-7.193h-31.613c-4.41,0-8.24,2.958-9.316,7.193
			c-1.313,5.169-6.141,8.494-11.485,7.904C214.604,169.946,210.7,166.097,210.111,161.321z"/>
	</g>
</g>
</svg>
